<?xml version="1.0" encoding="utf-8" standalone="no"?>
<!DOCTYPE svg PUBLIC "-//W3C//DTD SVG 1.1//EN"
  "http://www.w3.org/Graphics/SVG/1.1/DTD/svg11.dtd">
<svg xmlns:xlink="http://www.w3.org/1999/xlink" width="792pt" height="360pt" viewBox="0 0 792 360" xmlns="http://www.w3.org/2000/svg" version="1.1">
 <metadata>
  <rdf:RDF xmlns:dc="http://purl.org/dc/elements/1.1/" xmlns:cc="http://creativecommons.org/ns#" xmlns:rdf="http://www.w3.org/1999/02/22-rdf-syntax-ns#">
   <cc:Work>
    <dc:type rdf:resource="http://purl.org/dc/dcmitype/StillImage"/>
    <dc:date>2024-04-06T22:34:56.022578</dc:date>
    <dc:format>image/svg+xml</dc:format>
    <dc:creator>
     <cc:Agent>
      <dc:title>Matplotlib v3.8.2, https://matplotlib.org/</dc:title>
     </cc:Agent>
    </dc:creator>
   </cc:Work>
  </rdf:RDF>
 </metadata>
 <defs>
  <style type="text/css">*{stroke-linejoin: round; stroke-linecap: butt}</style>
 </defs>
 <g id="figure_1">
  <g id="patch_1">
   <path d="M 0 360 
L 792 360 
L 792 0 
L 0 0 
z
" style="fill: #ffffff"/>
  </g>
  <g id="axes_1">
   <g id="patch_2">
    <path d="M 99 320.4 
L 712.8 320.4 
L 712.8 43.2 
L 99 43.2 
z
" style="fill: #ffffff"/>
   </g>
   <g id="matplotlib.axis_1">
    <g id="xtick_1">
     <g id="line2d_1">
      <defs>
       <path id="m39fe1ff77c" d="M 0 0 
L 0 3.5 
" style="stroke: #000000; stroke-width: 0.8"/>
      </defs>
      <g>
       <use xlink:href="#m39fe1ff77c" x="126.9" y="320.4" style="stroke: #000000; stroke-width: 0.8"/>
      </g>
     </g>
     <g id="text_1">
      <!-- 0 -->
      <g transform="translate(123.71875 334.998438) scale(0.1 -0.1)">
       <defs>
        <path id="DejaVuSans-30" d="M 2034 4250 
Q 1547 4250 1301 3770 
Q 1056 3291 1056 2328 
Q 1056 1369 1301 889 
Q 1547 409 2034 409 
Q 2525 409 2770 889 
Q 3016 1369 3016 2328 
Q 3016 3291 2770 3770 
Q 2525 4250 2034 4250 
z
M 2034 4750 
Q 2819 4750 3233 4129 
Q 3647 3509 3647 2328 
Q 3647 1150 3233 529 
Q 2819 -91 2034 -91 
Q 1250 -91 836 529 
Q 422 1150 422 2328 
Q 422 3509 836 4129 
Q 1250 4750 2034 4750 
z
" transform="scale(0.015625)"/>
       </defs>
       <use xlink:href="#DejaVuSans-30"/>
      </g>
     </g>
    </g>
    <g id="xtick_2">
     <g id="line2d_2">
      <g>
       <use xlink:href="#m39fe1ff77c" x="239.4" y="320.4" style="stroke: #000000; stroke-width: 0.8"/>
      </g>
     </g>
     <g id="text_2">
      <!-- 50 -->
      <g transform="translate(233.0375 334.998438) scale(0.1 -0.1)">
       <defs>
        <path id="DejaVuSans-35" d="M 691 4666 
L 3169 4666 
L 3169 4134 
L 1269 4134 
L 1269 2991 
Q 1406 3038 1543 3061 
Q 1681 3084 1819 3084 
Q 2600 3084 3056 2656 
Q 3513 2228 3513 1497 
Q 3513 744 3044 326 
Q 2575 -91 1722 -91 
Q 1428 -91 1123 -41 
Q 819 9 494 109 
L 494 744 
Q 775 591 1075 516 
Q 1375 441 1709 441 
Q 2250 441 2565 725 
Q 2881 1009 2881 1497 
Q 2881 1984 2565 2268 
Q 2250 2553 1709 2553 
Q 1456 2553 1204 2497 
Q 953 2441 691 2322 
L 691 4666 
z
" transform="scale(0.015625)"/>
       </defs>
       <use xlink:href="#DejaVuSans-35"/>
       <use xlink:href="#DejaVuSans-30" x="63.623047"/>
      </g>
     </g>
    </g>
    <g id="xtick_3">
     <g id="line2d_3">
      <g>
       <use xlink:href="#m39fe1ff77c" x="351.9" y="320.4" style="stroke: #000000; stroke-width: 0.8"/>
      </g>
     </g>
     <g id="text_3">
      <!-- 100 -->
      <g transform="translate(342.35625 334.998438) scale(0.1 -0.1)">
       <defs>
        <path id="DejaVuSans-31" d="M 794 531 
L 1825 531 
L 1825 4091 
L 703 3866 
L 703 4441 
L 1819 4666 
L 2450 4666 
L 2450 531 
L 3481 531 
L 3481 0 
L 794 0 
L 794 531 
z
" transform="scale(0.015625)"/>
       </defs>
       <use xlink:href="#DejaVuSans-31"/>
       <use xlink:href="#DejaVuSans-30" x="63.623047"/>
       <use xlink:href="#DejaVuSans-30" x="127.246094"/>
      </g>
     </g>
    </g>
    <g id="xtick_4">
     <g id="line2d_4">
      <g>
       <use xlink:href="#m39fe1ff77c" x="464.4" y="320.4" style="stroke: #000000; stroke-width: 0.8"/>
      </g>
     </g>
     <g id="text_4">
      <!-- 150 -->
      <g transform="translate(454.85625 334.998438) scale(0.1 -0.1)">
       <use xlink:href="#DejaVuSans-31"/>
       <use xlink:href="#DejaVuSans-35" x="63.623047"/>
       <use xlink:href="#DejaVuSans-30" x="127.246094"/>
      </g>
     </g>
    </g>
    <g id="xtick_5">
     <g id="line2d_5">
      <g>
       <use xlink:href="#m39fe1ff77c" x="576.9" y="320.4" style="stroke: #000000; stroke-width: 0.8"/>
      </g>
     </g>
     <g id="text_5">
      <!-- 200 -->
      <g transform="translate(567.35625 334.998438) scale(0.1 -0.1)">
       <defs>
        <path id="DejaVuSans-32" d="M 1228 531 
L 3431 531 
L 3431 0 
L 469 0 
L 469 531 
Q 828 903 1448 1529 
Q 2069 2156 2228 2338 
Q 2531 2678 2651 2914 
Q 2772 3150 2772 3378 
Q 2772 3750 2511 3984 
Q 2250 4219 1831 4219 
Q 1534 4219 1204 4116 
Q 875 4013 500 3803 
L 500 4441 
Q 881 4594 1212 4672 
Q 1544 4750 1819 4750 
Q 2544 4750 2975 4387 
Q 3406 4025 3406 3419 
Q 3406 3131 3298 2873 
Q 3191 2616 2906 2266 
Q 2828 2175 2409 1742 
Q 1991 1309 1228 531 
z
" transform="scale(0.015625)"/>
       </defs>
       <use xlink:href="#DejaVuSans-32"/>
       <use xlink:href="#DejaVuSans-30" x="63.623047"/>
       <use xlink:href="#DejaVuSans-30" x="127.246094"/>
      </g>
     </g>
    </g>
    <g id="xtick_6">
     <g id="line2d_6">
      <g>
       <use xlink:href="#m39fe1ff77c" x="689.4" y="320.4" style="stroke: #000000; stroke-width: 0.8"/>
      </g>
     </g>
     <g id="text_6">
      <!-- 250 -->
      <g transform="translate(679.85625 334.998438) scale(0.1 -0.1)">
       <use xlink:href="#DejaVuSans-32"/>
       <use xlink:href="#DejaVuSans-35" x="63.623047"/>
       <use xlink:href="#DejaVuSans-30" x="127.246094"/>
      </g>
     </g>
    </g>
    <g id="text_7">
     <!-- Количество кластеров -->
     <g transform="translate(310.63375 353.235625) scale(0.16 -0.16)">
      <defs>
       <path id="DejaVuSans-41a" d="M 628 4666 
L 1259 4666 
L 1259 2359 
L 3516 4666 
L 4325 4666 
L 2522 2822 
L 4419 0 
L 3731 0 
L 2113 2403 
L 1259 1531 
L 1259 0 
L 628 0 
L 628 4666 
z
" transform="scale(0.015625)"/>
       <path id="DejaVuSans-43e" d="M 1959 3097 
Q 1497 3097 1228 2736 
Q 959 2375 959 1747 
Q 959 1119 1226 758 
Q 1494 397 1959 397 
Q 2419 397 2687 759 
Q 2956 1122 2956 1747 
Q 2956 2369 2687 2733 
Q 2419 3097 1959 3097 
z
M 1959 3584 
Q 2709 3584 3137 3096 
Q 3566 2609 3566 1747 
Q 3566 888 3137 398 
Q 2709 -91 1959 -91 
Q 1206 -91 779 398 
Q 353 888 353 1747 
Q 353 2609 779 3096 
Q 1206 3584 1959 3584 
z
" transform="scale(0.015625)"/>
       <path id="DejaVuSans-43b" d="M 238 0 
L 238 478 
Q 806 566 981 959 
Q 1194 1513 1194 2928 
L 1194 3500 
L 3559 3500 
L 3559 0 
L 2984 0 
L 2984 3041 
L 1769 3041 
L 1769 2694 
Q 1769 1344 1494 738 
Q 1200 91 238 0 
z
" transform="scale(0.015625)"/>
       <path id="DejaVuSans-438" d="M 3578 3500 
L 3578 0 
L 3006 0 
L 3006 2809 
L 1319 0 
L 581 0 
L 581 3500 
L 1153 3500 
L 1153 697 
L 2838 3500 
L 3578 3500 
z
" transform="scale(0.015625)"/>
       <path id="DejaVuSans-447" d="M 2625 0 
L 2625 1472 
L 1553 1472 
Q 1075 1472 756 1769 
Q 469 2038 469 2613 
L 469 3500 
L 1044 3500 
L 1044 2666 
Q 1044 2300 1206 2116 
Q 1372 1931 1697 1931 
L 2625 1931 
L 2625 3500 
L 3200 3500 
L 3200 0 
L 2625 0 
z
" transform="scale(0.015625)"/>
       <path id="DejaVuSans-435" d="M 3597 1894 
L 3597 1613 
L 953 1613 
Q 991 1019 1311 708 
Q 1631 397 2203 397 
Q 2534 397 2845 478 
Q 3156 559 3463 722 
L 3463 178 
Q 3153 47 2828 -22 
Q 2503 -91 2169 -91 
Q 1331 -91 842 396 
Q 353 884 353 1716 
Q 353 2575 817 3079 
Q 1281 3584 2069 3584 
Q 2775 3584 3186 3129 
Q 3597 2675 3597 1894 
z
M 3022 2063 
Q 3016 2534 2758 2815 
Q 2500 3097 2075 3097 
Q 1594 3097 1305 2825 
Q 1016 2553 972 2059 
L 3022 2063 
z
" transform="scale(0.015625)"/>
       <path id="DejaVuSans-441" d="M 3122 3366 
L 3122 2828 
Q 2878 2963 2633 3030 
Q 2388 3097 2138 3097 
Q 1578 3097 1268 2742 
Q 959 2388 959 1747 
Q 959 1106 1268 751 
Q 1578 397 2138 397 
Q 2388 397 2633 464 
Q 2878 531 3122 666 
L 3122 134 
Q 2881 22 2623 -34 
Q 2366 -91 2075 -91 
Q 1284 -91 818 406 
Q 353 903 353 1747 
Q 353 2603 823 3093 
Q 1294 3584 2113 3584 
Q 2378 3584 2631 3529 
Q 2884 3475 3122 3366 
z
" transform="scale(0.015625)"/>
       <path id="DejaVuSans-442" d="M 188 3500 
L 3541 3500 
L 3541 3041 
L 2147 3041 
L 2147 0 
L 1581 0 
L 1581 3041 
L 188 3041 
L 188 3500 
z
" transform="scale(0.015625)"/>
       <path id="DejaVuSans-432" d="M 1156 1613 
L 1156 459 
L 1975 459 
Q 2369 459 2575 607 
Q 2781 756 2781 1038 
Q 2781 1319 2575 1466 
Q 2369 1613 1975 1613 
L 1156 1613 
z
M 1156 3041 
L 1156 2072 
L 1913 2072 
Q 2238 2072 2444 2201 
Q 2650 2331 2650 2563 
Q 2650 2794 2444 2917 
Q 2238 3041 1913 3041 
L 1156 3041 
z
M 581 3500 
L 1950 3500 
Q 2566 3500 2897 3275 
Q 3228 3050 3228 2634 
Q 3228 2313 3059 2123 
Q 2891 1934 2559 1888 
Q 2956 1813 3175 1575 
Q 3394 1338 3394 981 
Q 3394 513 3033 256 
Q 2672 0 2003 0 
L 581 0 
L 581 3500 
z
" transform="scale(0.015625)"/>
       <path id="DejaVuSans-20" transform="scale(0.015625)"/>
       <path id="DejaVuSans-43a" d="M 581 3500 
L 1153 3500 
L 1153 1856 
L 2775 3500 
L 3481 3500 
L 2144 2147 
L 3653 0 
L 3009 0 
L 1769 1766 
L 1153 1141 
L 1153 0 
L 581 0 
L 581 3500 
z
" transform="scale(0.015625)"/>
       <path id="DejaVuSans-430" d="M 2194 1759 
Q 1497 1759 1228 1600 
Q 959 1441 959 1056 
Q 959 750 1161 570 
Q 1363 391 1709 391 
Q 2188 391 2477 730 
Q 2766 1069 2766 1631 
L 2766 1759 
L 2194 1759 
z
M 3341 1997 
L 3341 0 
L 2766 0 
L 2766 531 
Q 2569 213 2275 61 
Q 1981 -91 1556 -91 
Q 1019 -91 701 211 
Q 384 513 384 1019 
Q 384 1609 779 1909 
Q 1175 2209 1959 2209 
L 2766 2209 
L 2766 2266 
Q 2766 2663 2505 2880 
Q 2244 3097 1772 3097 
Q 1472 3097 1187 3025 
Q 903 2953 641 2809 
L 641 3341 
Q 956 3463 1253 3523 
Q 1550 3584 1831 3584 
Q 2591 3584 2966 3190 
Q 3341 2797 3341 1997 
z
" transform="scale(0.015625)"/>
       <path id="DejaVuSans-440" d="M 1159 525 
L 1159 -1331 
L 581 -1331 
L 581 3500 
L 1159 3500 
L 1159 2969 
Q 1341 3281 1617 3432 
Q 1894 3584 2278 3584 
Q 2916 3584 3314 3078 
Q 3713 2572 3713 1747 
Q 3713 922 3314 415 
Q 2916 -91 2278 -91 
Q 1894 -91 1617 61 
Q 1341 213 1159 525 
z
M 3116 1747 
Q 3116 2381 2855 2742 
Q 2594 3103 2138 3103 
Q 1681 3103 1420 2742 
Q 1159 2381 1159 1747 
Q 1159 1113 1420 752 
Q 1681 391 2138 391 
Q 2594 391 2855 752 
Q 3116 1113 3116 1747 
z
" transform="scale(0.015625)"/>
      </defs>
      <use xlink:href="#DejaVuSans-41a"/>
      <use xlink:href="#DejaVuSans-43e" x="70.996094"/>
      <use xlink:href="#DejaVuSans-43b" x="132.177734"/>
      <use xlink:href="#DejaVuSans-438" x="196.09375"/>
      <use xlink:href="#DejaVuSans-447" x="261.083984"/>
      <use xlink:href="#DejaVuSans-435" x="320.166016"/>
      <use xlink:href="#DejaVuSans-441" x="381.689453"/>
      <use xlink:href="#DejaVuSans-442" x="436.669922"/>
      <use xlink:href="#DejaVuSans-432" x="494.921875"/>
      <use xlink:href="#DejaVuSans-43e" x="553.857422"/>
      <use xlink:href="#DejaVuSans-20" x="615.039062"/>
      <use xlink:href="#DejaVuSans-43a" x="646.826172"/>
      <use xlink:href="#DejaVuSans-43b" x="707.226562"/>
      <use xlink:href="#DejaVuSans-430" x="771.142578"/>
      <use xlink:href="#DejaVuSans-441" x="832.421875"/>
      <use xlink:href="#DejaVuSans-442" x="887.402344"/>
      <use xlink:href="#DejaVuSans-435" x="945.654297"/>
      <use xlink:href="#DejaVuSans-440" x="1007.177734"/>
      <use xlink:href="#DejaVuSans-43e" x="1070.654297"/>
      <use xlink:href="#DejaVuSans-432" x="1131.835938"/>
     </g>
    </g>
   </g>
   <g id="matplotlib.axis_2">
    <g id="ytick_1">
     <g id="line2d_7">
      <defs>
       <path id="m34d3a51457" d="M 0 0 
L -3.5 0 
" style="stroke: #000000; stroke-width: 0.8"/>
      </defs>
      <g>
       <use xlink:href="#m34d3a51457" x="99" y="304.533265" style="stroke: #000000; stroke-width: 0.8"/>
      </g>
     </g>
     <g id="text_8">
      <!-- 0.0 -->
      <g transform="translate(76.096875 308.332483) scale(0.1 -0.1)">
       <defs>
        <path id="DejaVuSans-2e" d="M 684 794 
L 1344 794 
L 1344 0 
L 684 0 
L 684 794 
z
" transform="scale(0.015625)"/>
       </defs>
       <use xlink:href="#DejaVuSans-30"/>
       <use xlink:href="#DejaVuSans-2e" x="63.623047"/>
       <use xlink:href="#DejaVuSans-30" x="95.410156"/>
      </g>
     </g>
    </g>
    <g id="ytick_2">
     <g id="line2d_8">
      <g>
       <use xlink:href="#m34d3a51457" x="99" y="258.664253" style="stroke: #000000; stroke-width: 0.8"/>
      </g>
     </g>
     <g id="text_9">
      <!-- 0.2 -->
      <g transform="translate(76.096875 262.463472) scale(0.1 -0.1)">
       <use xlink:href="#DejaVuSans-30"/>
       <use xlink:href="#DejaVuSans-2e" x="63.623047"/>
       <use xlink:href="#DejaVuSans-32" x="95.410156"/>
      </g>
     </g>
    </g>
    <g id="ytick_3">
     <g id="line2d_9">
      <g>
       <use xlink:href="#m34d3a51457" x="99" y="212.795241" style="stroke: #000000; stroke-width: 0.8"/>
      </g>
     </g>
     <g id="text_10">
      <!-- 0.4 -->
      <g transform="translate(76.096875 216.59446) scale(0.1 -0.1)">
       <defs>
        <path id="DejaVuSans-34" d="M 2419 4116 
L 825 1625 
L 2419 1625 
L 2419 4116 
z
M 2253 4666 
L 3047 4666 
L 3047 1625 
L 3713 1625 
L 3713 1100 
L 3047 1100 
L 3047 0 
L 2419 0 
L 2419 1100 
L 313 1100 
L 313 1709 
L 2253 4666 
z
" transform="scale(0.015625)"/>
       </defs>
       <use xlink:href="#DejaVuSans-30"/>
       <use xlink:href="#DejaVuSans-2e" x="63.623047"/>
       <use xlink:href="#DejaVuSans-34" x="95.410156"/>
      </g>
     </g>
    </g>
    <g id="ytick_4">
     <g id="line2d_10">
      <g>
       <use xlink:href="#m34d3a51457" x="99" y="166.92623" style="stroke: #000000; stroke-width: 0.8"/>
      </g>
     </g>
     <g id="text_11">
      <!-- 0.6 -->
      <g transform="translate(76.096875 170.725448) scale(0.1 -0.1)">
       <defs>
        <path id="DejaVuSans-36" d="M 2113 2584 
Q 1688 2584 1439 2293 
Q 1191 2003 1191 1497 
Q 1191 994 1439 701 
Q 1688 409 2113 409 
Q 2538 409 2786 701 
Q 3034 994 3034 1497 
Q 3034 2003 2786 2293 
Q 2538 2584 2113 2584 
z
M 3366 4563 
L 3366 3988 
Q 3128 4100 2886 4159 
Q 2644 4219 2406 4219 
Q 1781 4219 1451 3797 
Q 1122 3375 1075 2522 
Q 1259 2794 1537 2939 
Q 1816 3084 2150 3084 
Q 2853 3084 3261 2657 
Q 3669 2231 3669 1497 
Q 3669 778 3244 343 
Q 2819 -91 2113 -91 
Q 1303 -91 875 529 
Q 447 1150 447 2328 
Q 447 3434 972 4092 
Q 1497 4750 2381 4750 
Q 2619 4750 2861 4703 
Q 3103 4656 3366 4563 
z
" transform="scale(0.015625)"/>
       </defs>
       <use xlink:href="#DejaVuSans-30"/>
       <use xlink:href="#DejaVuSans-2e" x="63.623047"/>
       <use xlink:href="#DejaVuSans-36" x="95.410156"/>
      </g>
     </g>
    </g>
    <g id="ytick_5">
     <g id="line2d_11">
      <g>
       <use xlink:href="#m34d3a51457" x="99" y="121.057218" style="stroke: #000000; stroke-width: 0.8"/>
      </g>
     </g>
     <g id="text_12">
      <!-- 0.8 -->
      <g transform="translate(76.096875 124.856437) scale(0.1 -0.1)">
       <defs>
        <path id="DejaVuSans-38" d="M 2034 2216 
Q 1584 2216 1326 1975 
Q 1069 1734 1069 1313 
Q 1069 891 1326 650 
Q 1584 409 2034 409 
Q 2484 409 2743 651 
Q 3003 894 3003 1313 
Q 3003 1734 2745 1975 
Q 2488 2216 2034 2216 
z
M 1403 2484 
Q 997 2584 770 2862 
Q 544 3141 544 3541 
Q 544 4100 942 4425 
Q 1341 4750 2034 4750 
Q 2731 4750 3128 4425 
Q 3525 4100 3525 3541 
Q 3525 3141 3298 2862 
Q 3072 2584 2669 2484 
Q 3125 2378 3379 2068 
Q 3634 1759 3634 1313 
Q 3634 634 3220 271 
Q 2806 -91 2034 -91 
Q 1263 -91 848 271 
Q 434 634 434 1313 
Q 434 1759 690 2068 
Q 947 2378 1403 2484 
z
M 1172 3481 
Q 1172 3119 1398 2916 
Q 1625 2713 2034 2713 
Q 2441 2713 2670 2916 
Q 2900 3119 2900 3481 
Q 2900 3844 2670 4047 
Q 2441 4250 2034 4250 
Q 1625 4250 1398 4047 
Q 1172 3844 1172 3481 
z
" transform="scale(0.015625)"/>
       </defs>
       <use xlink:href="#DejaVuSans-30"/>
       <use xlink:href="#DejaVuSans-2e" x="63.623047"/>
       <use xlink:href="#DejaVuSans-38" x="95.410156"/>
      </g>
     </g>
    </g>
    <g id="ytick_6">
     <g id="line2d_12">
      <g>
       <use xlink:href="#m34d3a51457" x="99" y="75.188206" style="stroke: #000000; stroke-width: 0.8"/>
      </g>
     </g>
     <g id="text_13">
      <!-- 1.0 -->
      <g transform="translate(76.096875 78.987425) scale(0.1 -0.1)">
       <use xlink:href="#DejaVuSans-31"/>
       <use xlink:href="#DejaVuSans-2e" x="63.623047"/>
       <use xlink:href="#DejaVuSans-30" x="95.410156"/>
      </g>
     </g>
    </g>
   </g>
   <g id="line2d_13">
    <path d="M 126.9 304.533265 
L 129.15 303.237973 
L 131.4 302.555443 
L 133.65 302.170118 
L 135.9 299.61885 
L 138.15 298.647002 
L 140.4 298.058136 
L 142.65 297.858694 
L 144.9 297.14789 
L 147.15 293.356247 
L 149.4 295.788792 
L 151.65 293.92967 
L 153.9 289.894282 
L 156.15 291.738369 
L 158.4 288.701183 
L 160.65 289.185778 
L 162.9 284.926158 
L 165.15 286.08951 
L 167.4 285.190638 
L 169.65 286.682389 
L 171.9 281.926488 
L 174.15 281.366137 
L 176.4 278.168125 
L 178.65 278.2967 
L 180.9 276.326614 
L 183.15 275.255669 
L 185.4 275.446326 
L 187.65 274.607463 
L 189.9 271.296444 
L 192.15 266.325718 
L 194.4 276.231329 
L 196.65 269.73939 
L 198.9 270.276518 
L 201.15 265.884268 
L 203.4 266.025902 
L 205.65 265.34981 
L 207.9 263.474302 
L 210.15 261.88014 
L 212.4 269.126295 
L 214.65 259.845243 
L 216.9 254.810506 
L 219.15 254.637332 
L 221.4 264.277998 
L 223.65 254.402764 
L 225.9 250.562079 
L 228.15 249.389153 
L 230.4 246.972238 
L 232.65 252.681432 
L 234.9 250.241518 
L 237.15 243.790053 
L 239.4 245.359915 
L 241.65 243.118595 
L 243.9 246.509251 
L 246.15 242.842529 
L 248.4 241.318109 
L 250.65 241.092016 
L 252.9 238.580634 
L 255.15 238.164478 
L 257.4 229.96785 
L 259.65 235.340618 
L 261.9 228.95942 
L 264.15 232.601402 
L 266.4 228.442863 
L 268.65 223.849501 
L 270.9 223.793965 
L 273.15 226.901134 
L 275.4 223.753423 
L 277.65 229.693138 
L 279.9 219.556058 
L 282.15 218.376147 
L 284.4 225.219177 
L 286.65 224.392071 
L 288.9 213.955251 
L 291.15 211.378009 
L 293.4 212.803128 
L 295.65 211.250676 
L 297.9 212.106193 
L 300.15 213.738394 
L 302.4 202.991063 
L 304.65 210.836022 
L 306.9 209.475077 
L 309.15 201.801409 
L 311.4 212.722728 
L 313.65 207.210022 
L 315.9 205.433983 
L 320.4 203.390678 
L 322.65 201.50983 
L 324.9 191.324339 
L 327.15 198.663267 
L 329.4 191.011592 
L 331.65 188.47797 
L 333.9 189.868185 
L 336.15 192.702454 
L 340.65 183.810551 
L 342.9 188.837431 
L 345.15 194.544977 
L 347.4 189.0555 
L 349.65 192.585626 
L 351.9 173.45469 
L 354.15 184.288299 
L 356.4 190.257158 
L 358.65 178.982452 
L 360.9 176.487354 
L 363.15 181.895194 
L 365.4 181.157175 
L 367.65 181.258064 
L 369.9 175.650336 
L 372.15 174.989644 
L 374.4 169.152488 
L 376.65 177.323483 
L 378.9 180.979053 
L 381.15 167.565336 
L 383.4 170.4642 
L 385.65 176.869849 
L 387.9 169.614681 
L 390.15 175.323799 
L 392.4 167.321212 
L 394.65 161.448602 
L 396.9 168.213275 
L 399.15 162.239385 
L 401.4 163.640057 
L 403.65 153.262396 
L 405.9 156.698672 
L 408.15 158.641743 
L 410.4 165.661642 
L 412.65 154.514802 
L 414.9 156.873702 
L 417.15 150.657909 
L 419.4 156.926825 
L 421.65 152.111077 
L 423.9 148.227667 
L 426.15 149.510087 
L 428.4 148.139054 
L 430.65 148.361052 
L 432.9 149.172792 
L 435.15 146.84159 
L 437.4 146.583993 
L 439.65 146.663246 
L 441.9 149.527717 
L 444.15 149.421395 
L 446.4 140.687458 
L 448.65 140.059803 
L 450.9 142.728362 
L 453.15 138.268519 
L 455.4 145.73749 
L 457.65 140.735622 
L 459.9 140.31105 
L 462.15 135.635275 
L 464.4 137.677031 
L 466.65 132.513582 
L 468.9 132.187124 
L 471.15 136.917089 
L 473.4 137.99949 
L 475.65 133.072041 
L 477.9 133.525894 
L 480.15 127.723855 
L 482.4 131.282345 
L 486.9 123.332547 
L 489.15 136.184914 
L 491.4 122.22798 
L 493.65 127.244858 
L 495.9 123.747358 
L 498.15 129.920671 
L 500.4 127.914867 
L 502.65 121.320494 
L 504.9 128.30668 
L 507.15 122.198579 
L 509.4 120.953569 
L 511.65 117.860742 
L 513.9 128.251762 
L 516.15 120.172293 
L 518.4 120.173717 
L 520.65 117.273061 
L 522.9 110.969147 
L 525.15 117.820332 
L 527.4 108.964347 
L 529.65 112.898645 
L 531.9 112.670315 
L 534.15 113.990304 
L 536.4 117.442034 
L 538.65 115.119849 
L 540.9 109.145488 
L 543.15 117.634374 
L 545.4 99.654767 
L 547.65 108.807166 
L 549.9 112.798364 
L 552.15 104.748569 
L 554.4 102.165078 
L 556.65 105.409188 
L 558.9 100.76533 
L 561.15 102.997472 
L 563.4 96.982474 
L 565.65 105.57956 
L 567.9 102.329203 
L 570.15 105.489526 
L 572.4 93.442141 
L 574.65 102.702608 
L 576.9 101.657225 
L 579.15 94.250558 
L 581.4 96.087098 
L 583.65 89.126636 
L 585.9 94.604867 
L 588.15 97.88558 
L 590.4 92.190307 
L 592.65 88.197758 
L 594.9 94.251405 
L 597.15 92.693726 
L 599.4 90.38857 
L 601.65 92.220545 
L 603.9 85.40783 
L 606.15 84.468835 
L 608.4 88.7282 
L 610.65 90.340253 
L 612.9 85.80135 
L 615.15 86.031203 
L 617.4 87.110857 
L 619.65 86.210882 
L 621.9 88.471053 
L 624.15 90.139066 
L 626.4 83.856729 
L 628.65 80.37913 
L 630.9 80.574674 
L 633.15 81.454313 
L 635.4 73.329374 
L 637.65 84.124869 
L 639.9 81.128736 
L 642.15 75.450666 
L 644.4 80.050559 
L 646.65 83.822213 
L 648.9 75.703884 
L 651.15 76.401878 
L 653.4 71.143681 
L 655.65 73.346644 
L 657.9 79.689006 
L 660.15 72.849052 
L 662.4 68.165374 
L 664.65 73.16012 
L 666.9 68.117626 
L 669.15 69.190342 
L 671.4 68.11407 
L 673.65 66.241399 
L 678.15 70.709433 
L 680.4 68.250524 
L 682.65 66.193553 
L 684.9 55.8 
L 684.9 55.8 
" clip-path="url(#pa13c04d3aa)" style="fill: none; stroke: #1f77b4; stroke-width: 1.5; stroke-linecap: square"/>
   </g>
   <g id="line2d_14">
    <path d="M 126.9 304.533265 
L 129.15 304.360553 
L 131.4 304.593554 
L 133.65 304.950501 
L 135.9 304.151708 
L 138.15 304.20906 
L 140.4 304.445028 
L 142.65 304.848641 
L 144.9 305.003094 
L 147.15 303.790491 
L 149.4 305.331501 
L 151.65 304.988586 
L 153.9 303.744228 
L 156.15 304.975745 
L 158.4 304.184309 
L 160.65 304.838562 
L 162.9 303.569232 
L 165.15 304.504965 
L 167.4 304.597251 
L 169.65 305.63178 
L 171.9 304.233686 
L 174.15 304.473008 
L 176.4 303.692529 
L 178.65 304.205201 
L 180.9 303.923097 
L 183.15 304.005294 
L 185.4 304.508245 
L 187.65 304.660118 
L 189.9 303.873965 
L 192.15 302.51028 
L 194.4 306.63022 
L 196.65 304.710757 
L 198.9 305.368239 
L 201.15 304.228285 
L 203.4 304.758787 
L 205.65 304.964298 
L 210.15 304.628205 
L 212.4 307.70491 
L 214.65 304.827403 
L 216.9 303.491935 
L 219.15 303.888178 
L 221.4 307.790429 
L 223.65 304.737924 
L 225.9 303.835221 
L 228.15 303.884956 
L 230.4 303.501252 
L 232.65 305.974861 
L 234.9 305.556521 
L 237.15 303.745668 
L 239.4 304.759842 
L 241.65 304.426439 
L 243.9 306.080351 
L 246.15 305.249764 
L 248.4 305.135438 
L 250.65 305.502326 
L 252.9 305.104625 
L 255.15 305.438761 
L 257.4 302.973377 
L 259.65 305.302576 
L 261.9 303.518747 
L 264.15 305.22858 
L 266.4 304.237146 
L 268.65 303.032218 
L 270.9 303.518169 
L 273.15 305.028949 
L 275.4 304.279087 
L 277.65 306.882534 
L 279.9 303.807395 
L 282.15 303.798708 
L 284.4 306.549979 
L 286.65 306.714617 
L 288.9 303.51157 
L 291.15 303.097616 
L 293.4 304.026458 
L 295.65 303.791546 
L 297.9 304.558018 
L 300.15 305.483549 
L 302.4 302.255834 
L 304.65 305.304752 
L 306.9 305.312905 
L 309.15 303.080409 
L 311.4 307.106006 
L 313.65 305.77044 
L 315.9 305.49344 
L 320.4 305.705202 
L 322.65 305.32542 
L 324.9 302.124975 
L 327.15 305.325171 
L 329.4 303.032865 
L 331.65 302.474574 
L 333.9 303.25441 
L 336.15 304.685851 
L 340.65 302.299851 
L 345.15 306.658118 
L 347.4 305.411036 
L 349.65 307.133465 
L 351.9 300.546335 
L 354.15 304.928927 
L 356.4 307.331664 
L 358.65 303.81979 
L 360.9 303.305133 
L 363.15 305.345565 
L 365.4 305.566092 
L 367.65 306.072727 
L 369.9 304.561796 
L 372.15 304.382998 
L 374.4 303.110846 
L 376.65 306.136398 
L 378.9 307.8 
L 381.15 303.279986 
L 383.4 304.79204 
L 385.65 307.420999 
L 387.9 305.276748 
L 390.15 306.818446 
L 392.4 304.829493 
L 394.65 303.444325 
L 396.9 305.857528 
L 399.15 304.734455 
L 401.4 305.095797 
L 403.65 301.88072 
L 405.9 303.610973 
L 408.15 304.303258 
L 410.4 307.136191 
L 412.65 303.788933 
L 414.9 304.852099 
L 417.15 303.070737 
L 419.4 305.597781 
L 421.65 304.231744 
L 423.9 303.206033 
L 426.15 303.821891 
L 428.4 303.717446 
L 430.65 304.04816 
L 432.9 305.004815 
L 435.15 304.421553 
L 437.4 304.785136 
L 439.65 304.7742 
L 441.9 306.051025 
L 444.15 305.426548 
L 446.4 303.759172 
L 448.65 303.680284 
L 450.9 304.9791 
L 453.15 303.664363 
L 455.4 306.277564 
L 457.65 304.965382 
L 459.9 305.351929 
L 462.15 303.906679 
L 464.4 304.662401 
L 466.65 303.407901 
L 468.9 303.804323 
L 471.15 305.511035 
L 473.4 305.677763 
L 475.65 305.035989 
L 477.9 305.375981 
L 480.15 303.815352 
L 482.4 304.885235 
L 484.65 304.068244 
L 486.9 303.700477 
L 489.15 307.516595 
L 491.4 303.089273 
L 493.65 304.94507 
L 495.9 304.196125 
L 498.15 306.623051 
L 500.4 306.679738 
L 502.65 304.306675 
L 504.9 306.24337 
L 507.15 304.872908 
L 509.4 304.95763 
L 511.65 304.432973 
L 513.9 306.995794 
L 516.15 306.013943 
L 518.4 305.728366 
L 520.65 304.856225 
L 522.9 303.435951 
L 525.15 305.319233 
L 527.4 302.81928 
L 529.65 304.661135 
L 531.9 304.77424 
L 534.15 305.354225 
L 536.4 306.439716 
L 538.65 306.145452 
L 540.9 304.799123 
L 543.15 307.67343 
L 545.4 302.095497 
L 547.65 305.986595 
L 549.9 306.550573 
L 552.15 304.211153 
L 554.4 303.516781 
L 556.65 304.664046 
L 558.9 303.880197 
L 561.15 304.923321 
L 563.4 302.531876 
L 565.65 305.437418 
L 567.9 305.385272 
L 570.15 307.194868 
L 572.4 303.152699 
L 574.65 306.230078 
L 576.9 305.747798 
L 579.15 303.926632 
L 581.4 304.665289 
L 583.65 302.439926 
L 585.9 303.459254 
L 588.15 306.009922 
L 590.4 302.861641 
L 592.65 303.512152 
L 594.9 305.396443 
L 597.15 305.254515 
L 599.4 304.381899 
L 601.65 305.558501 
L 603.9 303.124345 
L 606.15 302.928689 
L 608.4 304.532224 
L 610.65 304.997251 
L 612.9 304.465217 
L 615.15 304.389507 
L 617.4 305.325844 
L 619.65 305.99236 
L 621.9 305.487456 
L 624.15 307.61022 
L 626.4 304.856974 
L 628.65 303.803627 
L 630.9 304.14717 
L 633.15 305.158178 
L 635.4 302.658876 
L 637.65 305.451377 
L 639.9 304.930357 
L 642.15 304.073876 
L 644.4 304.242016 
L 646.65 306.307669 
L 648.9 304.549812 
L 651.15 305.005398 
L 653.4 302.858888 
L 655.65 304.288059 
L 657.9 306.229159 
L 660.15 305.350184 
L 662.4 303.443867 
L 664.65 304.65523 
L 666.9 303.167296 
L 669.15 304.806434 
L 671.4 304.420675 
L 673.65 303.75055 
L 675.9 304.069631 
L 678.15 305.662416 
L 680.4 304.236133 
L 682.65 303.966837 
L 684.9 301.696184 
L 684.9 301.696184 
" clip-path="url(#pa13c04d3aa)" style="fill: none; stroke: #ff7f0e; stroke-width: 1.5; stroke-linecap: square"/>
   </g>
   <g id="line2d_15">
    <path d="M 126.9 281.663958 
L 129.15 190.221168 
L 131.4 159.215736 
L 133.65 144.151967 
L 135.9 134.77522 
L 138.15 128.519312 
L 140.4 124.290547 
L 142.65 121.008548 
L 144.9 118.454301 
L 147.15 116.455624 
L 149.4 114.817838 
L 151.65 113.400445 
L 156.15 111.110667 
L 160.65 109.583996 
L 162.9 108.67534 
L 165.15 108.333733 
L 167.4 107.707912 
L 176.4 105.958553 
L 180.9 105.375434 
L 183.15 105.219782 
L 185.4 104.835015 
L 187.65 104.63804 
L 189.9 104.280363 
L 201.15 103.456649 
L 203.4 103.418081 
L 207.9 103.06729 
L 210.15 102.856541 
L 212.4 102.81935 
L 214.65 102.620079 
L 223.65 102.211895 
L 225.9 102.064968 
L 230.4 101.952476 
L 252.9 101.271099 
L 257.4 101.122334 
L 259.65 101.147128 
L 264.15 101.033718 
L 297.9 100.450599 
L 300.15 100.472638 
L 304.65 100.370707 
L 331.65 99.998337 
L 338.4 99.977216 
L 342.9 99.962064 
L 345.15 99.997878 
L 351.9 99.829829 
L 363.15 99.822023 
L 376.65 99.698971 
L 383.4 99.670504 
L 426.15 99.40833 
L 435.15 99.37068 
L 502.65 99.15488 
L 509.4 99.137432 
L 522.9 99.061213 
L 527.4 99.062591 
L 552.15 99.018971 
L 588.15 98.949181 
L 594.9 98.951476 
L 615.15 98.906939 
L 628.65 98.859647 
L 684.9 98.736595 
L 684.9 98.736595 
" clip-path="url(#pa13c04d3aa)" style="fill: none; stroke: #2ca02c; stroke-width: 1.5; stroke-linecap: square"/>
   </g>
   <g id="line2d_16">
    <path d="M 126.9 304.533265 
L 129.15 304.431848 
L 133.65 304.830241 
L 135.9 304.356916 
L 138.15 304.317069 
L 142.65 304.706571 
L 144.9 304.803081 
L 147.15 304.186359 
L 149.4 304.923951 
L 151.65 304.701796 
L 153.9 304.330535 
L 156.15 304.692986 
L 158.4 304.328447 
L 160.65 304.674806 
L 162.9 304.138001 
L 167.4 304.522484 
L 169.65 304.948981 
L 171.9 304.548623 
L 174.15 304.596123 
L 176.4 304.360034 
L 178.65 304.437304 
L 183.15 304.213422 
L 185.4 304.58203 
L 187.65 304.608509 
L 192.15 304.047597 
L 194.4 304.989621 
L 196.65 304.659332 
L 198.9 304.705613 
L 201.15 304.358374 
L 203.4 304.570257 
L 207.9 304.690807 
L 210.15 304.556793 
L 212.4 304.953678 
L 214.65 304.513071 
L 216.9 304.293364 
L 219.15 304.451641 
L 221.4 305.094806 
L 225.9 304.295915 
L 230.4 304.354554 
L 232.65 304.860709 
L 234.9 304.70183 
L 237.15 304.413851 
L 239.4 304.686746 
L 241.65 304.411658 
L 243.9 304.782253 
L 246.15 304.771805 
L 248.4 304.563779 
L 250.65 304.652693 
L 255.15 304.626419 
L 257.4 304.198366 
L 259.65 304.63163 
L 261.9 304.331223 
L 264.15 304.646653 
L 268.65 304.33431 
L 270.9 304.375198 
L 273.15 304.622582 
L 275.4 304.583066 
L 277.65 304.87509 
L 279.9 304.405815 
L 282.15 304.452104 
L 284.4 304.931016 
L 286.65 304.853807 
L 288.9 304.397648 
L 291.15 304.288804 
L 293.4 304.486849 
L 295.65 304.262089 
L 297.9 304.561209 
L 300.15 304.687842 
L 302.4 304.395345 
L 304.65 304.63048 
L 306.9 304.682893 
L 309.15 304.428141 
L 311.4 304.927934 
L 313.65 304.621769 
L 318.15 304.569977 
L 320.4 304.726414 
L 322.65 304.727095 
L 324.9 304.310368 
L 327.15 304.626699 
L 329.4 304.370272 
L 331.65 304.244796 
L 336.15 304.44827 
L 338.4 304.470497 
L 340.65 304.146032 
L 342.9 304.626261 
L 345.15 304.773918 
L 347.4 304.572203 
L 349.65 304.904923 
L 351.9 304.067476 
L 354.15 304.588129 
L 356.4 304.891926 
L 358.65 304.413074 
L 360.9 304.452434 
L 363.15 304.633711 
L 365.4 304.598953 
L 367.65 304.774499 
L 374.4 304.347914 
L 376.65 304.755585 
L 378.9 304.951787 
L 381.15 304.41067 
L 385.65 304.862534 
L 387.9 304.649749 
L 390.15 304.865615 
L 392.4 304.471866 
L 394.65 304.413408 
L 396.9 304.747886 
L 399.15 304.560739 
L 401.4 304.539561 
L 403.65 304.24397 
L 405.9 304.446482 
L 408.15 304.455891 
L 410.4 304.850094 
L 412.65 304.463945 
L 414.9 304.540201 
L 417.15 304.351193 
L 419.4 304.696706 
L 421.65 304.391116 
L 444.15 304.6426 
L 446.4 304.440897 
L 450.9 304.476774 
L 453.15 304.368524 
L 455.4 304.699163 
L 462.15 304.456739 
L 464.4 304.561551 
L 468.9 304.458685 
L 471.15 304.628499 
L 477.9 304.689099 
L 480.15 304.433384 
L 482.4 304.571893 
L 486.9 304.392239 
L 489.15 304.799883 
L 491.4 304.374654 
L 493.65 304.618685 
L 495.9 304.463382 
L 498.15 304.761296 
L 500.4 304.802074 
L 502.65 304.502942 
L 504.9 304.717201 
L 507.15 304.559336 
L 509.4 304.596333 
L 511.65 304.466189 
L 513.9 304.74355 
L 522.9 304.436404 
L 525.15 304.630046 
L 527.4 304.3262 
L 529.65 304.50695 
L 538.65 304.64892 
L 540.9 304.586648 
L 543.15 304.875472 
L 545.4 304.266915 
L 547.65 304.715108 
L 549.9 304.72878 
L 552.15 304.425918 
L 558.9 304.489681 
L 561.15 304.60915 
L 563.4 304.258881 
L 565.65 304.626529 
L 567.9 304.611868 
L 570.15 304.799123 
L 572.4 304.418977 
L 574.65 304.669739 
L 576.9 304.671315 
L 579.15 304.460621 
L 581.4 304.573286 
L 583.65 304.316196 
L 588.15 304.653163 
L 590.4 304.357884 
L 597.15 304.62756 
L 603.9 304.39511 
L 606.15 304.309928 
L 608.4 304.57439 
L 621.9 304.599425 
L 624.15 304.786659 
L 628.65 304.459209 
L 630.9 304.431638 
L 633.15 304.655988 
L 635.4 304.342659 
L 637.65 304.638781 
L 639.9 304.619344 
L 642.15 304.45843 
L 646.65 304.74771 
L 648.9 304.532338 
L 651.15 304.617031 
L 653.4 304.436172 
L 655.65 304.506617 
L 657.9 304.699711 
L 662.4 304.373832 
L 664.65 304.480788 
L 666.9 304.386314 
L 669.15 304.560353 
L 673.65 304.426463 
L 678.15 304.630819 
L 684.9 304.227359 
L 684.9 304.227359 
" clip-path="url(#pa13c04d3aa)" style="fill: none; stroke: #d62728; stroke-width: 1.5; stroke-linecap: square"/>
   </g>
   <g id="line2d_17">
    <path d="M 126.9 232.111151 
L 129.15 253.0948 
L 131.4 262.796029 
L 133.65 268.563455 
L 135.9 271.964222 
L 138.15 274.814612 
L 140.4 277.184024 
L 142.65 279.102425 
L 144.9 280.666816 
L 147.15 281.256938 
L 149.4 283.05014 
L 151.65 283.770843 
L 153.9 284.208226 
L 156.15 285.390248 
L 158.4 285.557054 
L 160.65 286.538379 
L 162.9 286.690421 
L 165.15 287.221269 
L 167.4 287.917884 
L 169.65 288.770891 
L 171.9 288.709871 
L 174.15 289.131352 
L 176.4 289.310453 
L 178.65 289.683885 
L 180.9 289.8338 
L 183.15 289.852358 
L 185.4 290.677378 
L 187.65 290.913538 
L 192.15 290.790483 
L 194.4 292.057356 
L 196.65 291.839979 
L 198.9 292.099696 
L 201.15 291.890601 
L 207.9 292.777035 
L 210.15 292.855961 
L 212.4 293.431983 
L 214.65 293.089516 
L 216.9 292.891785 
L 219.15 293.336054 
L 221.4 294.203892 
L 225.9 293.499321 
L 228.15 293.497813 
L 230.4 293.730532 
L 232.65 294.535523 
L 234.9 294.405043 
L 237.15 294.076849 
L 239.4 294.567852 
L 241.65 294.238105 
L 243.9 294.923816 
L 246.15 294.982694 
L 248.4 294.775337 
L 252.9 295.078527 
L 255.15 295.231427 
L 257.4 294.656753 
L 259.65 295.291663 
L 261.9 294.969517 
L 264.15 295.49166 
L 268.65 295.155716 
L 270.9 295.362019 
L 273.15 295.787925 
L 275.4 295.717782 
L 277.65 296.311449 
L 279.9 295.707226 
L 282.15 295.777906 
L 284.4 296.510749 
L 286.65 296.521642 
L 288.9 295.845611 
L 291.15 295.773431 
L 293.4 296.142301 
L 295.65 295.776487 
L 297.9 296.313184 
L 300.15 296.492452 
L 302.4 296.159183 
L 304.65 296.573973 
L 306.9 296.733877 
L 309.15 296.363767 
L 311.4 297.143567 
L 313.65 296.801688 
L 315.9 296.685853 
L 318.15 296.801619 
L 320.4 297.126019 
L 322.65 297.105355 
L 324.9 296.44242 
L 327.15 297.096625 
L 329.4 296.718641 
L 331.65 296.550244 
L 333.9 296.797399 
L 338.4 297.00996 
L 340.65 296.469015 
L 342.9 297.333213 
L 345.15 297.541515 
L 347.4 297.331943 
L 349.65 298.023846 
L 351.9 296.520933 
L 354.15 297.493196 
L 356.4 298.069599 
L 358.65 297.288296 
L 360.9 297.345394 
L 363.15 297.630022 
L 365.4 297.638339 
L 367.65 298.05424 
L 374.4 297.389648 
L 376.65 298.135707 
L 378.9 298.499246 
L 381.15 297.485286 
L 383.4 298.061942 
L 385.65 298.46013 
L 387.9 298.100767 
L 390.15 298.32723 
L 392.4 297.67822 
L 394.65 297.677417 
L 396.9 298.378989 
L 401.4 297.968369 
L 403.65 297.496409 
L 405.9 297.936338 
L 408.15 297.881737 
L 410.4 298.702747 
L 412.65 298.04999 
L 414.9 298.172619 
L 417.15 297.818729 
L 419.4 298.548674 
L 421.65 297.985959 
L 426.15 298.100031 
L 428.4 298.327909 
L 430.65 298.318809 
L 432.9 298.436117 
L 435.15 298.396623 
L 437.4 298.486418 
L 439.65 298.371718 
L 441.9 298.752277 
L 446.4 298.291997 
L 450.9 298.43124 
L 453.15 298.174973 
L 455.4 298.837928 
L 462.15 298.419212 
L 464.4 298.631261 
L 468.9 298.551934 
L 471.15 298.898756 
L 473.4 298.807645 
L 477.9 299.062664 
L 480.15 298.577838 
L 482.4 298.869227 
L 484.65 298.626682 
L 486.9 298.639106 
L 489.15 299.3559 
L 491.4 298.495907 
L 493.65 299.049419 
L 495.9 298.763216 
L 498.15 299.419762 
L 500.4 299.562639 
L 502.65 298.861465 
L 504.9 299.295593 
L 507.15 299.035173 
L 509.4 299.132357 
L 511.65 298.876965 
L 513.9 299.351711 
L 516.15 299.440199 
L 520.65 299.266158 
L 522.9 298.936865 
L 525.15 299.276331 
L 527.4 298.660923 
L 529.65 299.093407 
L 536.4 299.610197 
L 538.65 299.407422 
L 540.9 299.37074 
L 543.15 300.025969 
L 545.4 298.659828 
L 547.65 299.741163 
L 549.9 299.679761 
L 552.15 299.019427 
L 554.4 299.052365 
L 556.65 299.324654 
L 558.9 299.25048 
L 561.15 299.540596 
L 563.4 298.685339 
L 565.65 299.496932 
L 567.9 299.564717 
L 570.15 300.087601 
L 572.4 299.165882 
L 574.65 299.779872 
L 576.9 299.737757 
L 579.15 299.275936 
L 581.4 299.595127 
L 583.65 298.9789 
L 585.9 299.193505 
L 588.15 299.805653 
L 590.4 298.946796 
L 592.65 299.39007 
L 594.9 299.69674 
L 597.15 299.776732 
L 599.4 299.641157 
L 601.65 299.780442 
L 603.9 299.224841 
L 606.15 299.027499 
L 608.4 299.671553 
L 617.4 299.927306 
L 619.65 300.10324 
L 621.9 299.788446 
L 624.15 300.374409 
L 626.4 299.805732 
L 628.65 299.541347 
L 630.9 299.474515 
L 633.15 300.082721 
L 635.4 299.335423 
L 637.65 299.958233 
L 639.9 299.946919 
L 642.15 299.625431 
L 644.4 299.745411 
L 646.65 300.319431 
L 648.9 299.807237 
L 651.15 300.048288 
L 653.4 299.574969 
L 655.65 299.796896 
L 657.9 300.216622 
L 660.15 300.036717 
L 662.4 299.490904 
L 664.65 299.74139 
L 666.9 299.518515 
L 669.15 300.036659 
L 673.65 299.65827 
L 675.9 299.870192 
L 678.15 300.207865 
L 680.4 299.902051 
L 682.65 299.899675 
L 684.9 299.227478 
L 684.9 299.227478 
" clip-path="url(#pa13c04d3aa)" style="fill: none; stroke: #9467bd; stroke-width: 1.5; stroke-linecap: square"/>
   </g>
   <g id="patch_3">
    <path d="M 99 320.4 
L 99 43.2 
" style="fill: none; stroke: #000000; stroke-width: 0.8; stroke-linejoin: miter; stroke-linecap: square"/>
   </g>
   <g id="patch_4">
    <path d="M 712.8 320.4 
L 712.8 43.2 
" style="fill: none; stroke: #000000; stroke-width: 0.8; stroke-linejoin: miter; stroke-linecap: square"/>
   </g>
   <g id="patch_5">
    <path d="M 99 320.4 
L 712.8 320.4 
" style="fill: none; stroke: #000000; stroke-width: 0.8; stroke-linejoin: miter; stroke-linecap: square"/>
   </g>
   <g id="patch_6">
    <path d="M 99 43.2 
L 712.8 43.2 
" style="fill: none; stroke: #000000; stroke-width: 0.8; stroke-linejoin: miter; stroke-linecap: square"/>
   </g>
   <g id="text_14">
    <!-- Динамика метрик случайного результата с увеличением числа кластеров -->
    <g transform="translate(110.310938 37.2) scale(0.15 -0.15)">
     <defs>
      <path id="DejaVuSans-414" d="M 1459 531 
L 3522 531 
L 3522 4134 
L 2006 4134 
L 2006 3472 
Q 2006 1913 1656 878 
Q 1584 666 1459 531 
z
M 538 531 
Q 956 728 1075 1103 
Q 1378 2066 1378 3784 
L 1378 4666 
L 4153 4666 
L 4153 531 
L 4684 531 
L 4684 -1003 
L 4153 -1003 
L 4153 0 
L 847 0 
L 847 -1003 
L 316 -1003 
L 316 531 
L 538 531 
z
" transform="scale(0.015625)"/>
      <path id="DejaVuSans-43d" d="M 581 3500 
L 1159 3500 
L 1159 2072 
L 3025 2072 
L 3025 3500 
L 3603 3500 
L 3603 0 
L 3025 0 
L 3025 1613 
L 1159 1613 
L 1159 0 
L 581 0 
L 581 3500 
z
" transform="scale(0.015625)"/>
      <path id="DejaVuSans-43c" d="M 581 3500 
L 1422 3500 
L 2416 1156 
L 3413 3500 
L 4247 3500 
L 4247 0 
L 3669 0 
L 3669 2950 
L 2703 672 
L 2128 672 
L 1159 2950 
L 1159 0 
L 581 0 
L 581 3500 
z
" transform="scale(0.015625)"/>
      <path id="DejaVuSans-443" d="M 2059 -325 
Q 1816 -950 1584 -1140 
Q 1353 -1331 966 -1331 
L 506 -1331 
L 506 -850 
L 844 -850 
Q 1081 -850 1212 -737 
Q 1344 -625 1503 -206 
L 1606 56 
L 191 3500 
L 800 3500 
L 1894 763 
L 2988 3500 
L 3597 3500 
L 2059 -325 
z
" transform="scale(0.015625)"/>
      <path id="DejaVuSans-439" d="M 3578 3500 
L 3578 0 
L 3006 0 
L 3006 2809 
L 1319 0 
L 581 0 
L 581 3500 
L 1153 3500 
L 1153 697 
L 2838 3500 
L 3578 3500 
z
M 1102 4833 
L 1471 4833 
Q 1505 4599 1656 4481 
Q 1808 4364 2080 4364 
Q 2349 4364 2499 4480 
Q 2649 4596 2689 4833 
L 3058 4833 
Q 3027 4386 2780 4161 
Q 2533 3936 2080 3936 
Q 1627 3936 1380 4161 
Q 1133 4386 1102 4833 
z
" transform="scale(0.015625)"/>
      <path id="DejaVuSans-433" d="M 581 0 
L 581 3500 
L 3050 3500 
L 3050 3041 
L 1159 3041 
L 1159 0 
L 581 0 
z
" transform="scale(0.015625)"/>
      <path id="DejaVuSans-437" d="M 2206 1888 
Q 2594 1813 2809 1584 
Q 3025 1356 3025 1019 
Q 3025 478 2622 193 
Q 2219 -91 1475 -91 
Q 1225 -91 961 -47 
Q 697 -3 416 84 
L 416 619 
Q 638 503 903 445 
Q 1169 388 1459 388 
Q 1931 388 2195 563 
Q 2459 738 2459 1019 
Q 2459 1294 2225 1461 
Q 1991 1628 1563 1628 
L 1100 1628 
L 1100 2103 
L 1584 2103 
Q 1947 2103 2158 2242 
Q 2369 2381 2369 2600 
Q 2369 2800 2151 2944 
Q 1934 3088 1563 3088 
Q 1341 3088 1089 3047 
Q 838 3006 534 2916 
L 534 3438 
Q 841 3513 1106 3550 
Q 1372 3588 1609 3588 
Q 2222 3588 2576 3342 
Q 2931 3097 2931 2656 
Q 2931 2366 2743 2164 
Q 2556 1963 2206 1888 
z
" transform="scale(0.015625)"/>
      <path id="DejaVuSans-44c" d="M 2781 1038 
Q 2781 1319 2576 1466 
Q 2372 1613 1978 1613 
L 1159 1613 
L 1159 459 
L 1978 459 
Q 2372 459 2576 607 
Q 2781 756 2781 1038 
z
M 581 3500 
L 1159 3500 
L 1159 2072 
L 2003 2072 
Q 2672 2072 3033 1817 
Q 3394 1563 3394 1038 
Q 3394 513 3033 256 
Q 2672 0 2003 0 
L 581 0 
L 581 3500 
z
" transform="scale(0.015625)"/>
     </defs>
     <use xlink:href="#DejaVuSans-414"/>
     <use xlink:href="#DejaVuSans-438" x="78.125"/>
     <use xlink:href="#DejaVuSans-43d" x="143.115234"/>
     <use xlink:href="#DejaVuSans-430" x="208.496094"/>
     <use xlink:href="#DejaVuSans-43c" x="269.775391"/>
     <use xlink:href="#DejaVuSans-438" x="345.214844"/>
     <use xlink:href="#DejaVuSans-43a" x="410.205078"/>
     <use xlink:href="#DejaVuSans-430" x="470.605469"/>
     <use xlink:href="#DejaVuSans-20" x="531.884766"/>
     <use xlink:href="#DejaVuSans-43c" x="563.671875"/>
     <use xlink:href="#DejaVuSans-435" x="639.111328"/>
     <use xlink:href="#DejaVuSans-442" x="700.634766"/>
     <use xlink:href="#DejaVuSans-440" x="758.886719"/>
     <use xlink:href="#DejaVuSans-438" x="822.363281"/>
     <use xlink:href="#DejaVuSans-43a" x="887.353516"/>
     <use xlink:href="#DejaVuSans-20" x="947.753906"/>
     <use xlink:href="#DejaVuSans-441" x="979.541016"/>
     <use xlink:href="#DejaVuSans-43b" x="1034.521484"/>
     <use xlink:href="#DejaVuSans-443" x="1098.4375"/>
     <use xlink:href="#DejaVuSans-447" x="1157.617188"/>
     <use xlink:href="#DejaVuSans-430" x="1216.699219"/>
     <use xlink:href="#DejaVuSans-439" x="1277.978516"/>
     <use xlink:href="#DejaVuSans-43d" x="1342.96875"/>
     <use xlink:href="#DejaVuSans-43e" x="1408.349609"/>
     <use xlink:href="#DejaVuSans-433" x="1469.53125"/>
     <use xlink:href="#DejaVuSans-43e" x="1522.070312"/>
     <use xlink:href="#DejaVuSans-20" x="1583.251953"/>
     <use xlink:href="#DejaVuSans-440" x="1615.039062"/>
     <use xlink:href="#DejaVuSans-435" x="1678.515625"/>
     <use xlink:href="#DejaVuSans-437" x="1740.039062"/>
     <use xlink:href="#DejaVuSans-443" x="1793.212891"/>
     <use xlink:href="#DejaVuSans-43b" x="1852.392578"/>
     <use xlink:href="#DejaVuSans-44c" x="1916.308594"/>
     <use xlink:href="#DejaVuSans-442" x="1975.244141"/>
     <use xlink:href="#DejaVuSans-430" x="2033.496094"/>
     <use xlink:href="#DejaVuSans-442" x="2094.775391"/>
     <use xlink:href="#DejaVuSans-430" x="2153.027344"/>
     <use xlink:href="#DejaVuSans-20" x="2214.306641"/>
     <use xlink:href="#DejaVuSans-441" x="2246.09375"/>
     <use xlink:href="#DejaVuSans-20" x="2301.074219"/>
     <use xlink:href="#DejaVuSans-443" x="2332.861328"/>
     <use xlink:href="#DejaVuSans-432" x="2392.041016"/>
     <use xlink:href="#DejaVuSans-435" x="2450.976562"/>
     <use xlink:href="#DejaVuSans-43b" x="2512.5"/>
     <use xlink:href="#DejaVuSans-438" x="2576.416016"/>
     <use xlink:href="#DejaVuSans-447" x="2641.40625"/>
     <use xlink:href="#DejaVuSans-435" x="2700.488281"/>
     <use xlink:href="#DejaVuSans-43d" x="2762.011719"/>
     <use xlink:href="#DejaVuSans-438" x="2827.392578"/>
     <use xlink:href="#DejaVuSans-435" x="2892.382812"/>
     <use xlink:href="#DejaVuSans-43c" x="2953.90625"/>
     <use xlink:href="#DejaVuSans-20" x="3029.345703"/>
     <use xlink:href="#DejaVuSans-447" x="3061.132812"/>
     <use xlink:href="#DejaVuSans-438" x="3120.214844"/>
     <use xlink:href="#DejaVuSans-441" x="3185.205078"/>
     <use xlink:href="#DejaVuSans-43b" x="3240.185547"/>
     <use xlink:href="#DejaVuSans-430" x="3304.101562"/>
     <use xlink:href="#DejaVuSans-20" x="3365.380859"/>
     <use xlink:href="#DejaVuSans-43a" x="3397.167969"/>
     <use xlink:href="#DejaVuSans-43b" x="3457.568359"/>
     <use xlink:href="#DejaVuSans-430" x="3521.484375"/>
     <use xlink:href="#DejaVuSans-441" x="3582.763672"/>
     <use xlink:href="#DejaVuSans-442" x="3637.744141"/>
     <use xlink:href="#DejaVuSans-435" x="3695.996094"/>
     <use xlink:href="#DejaVuSans-440" x="3757.519531"/>
     <use xlink:href="#DejaVuSans-43e" x="3820.996094"/>
     <use xlink:href="#DejaVuSans-432" x="3882.177734"/>
    </g>
   </g>
   <g id="legend_1">
    <g id="patch_7">
     <path d="M 597.9625 258.190625 
L 698.8 258.190625 
Q 702.8 258.190625 702.8 254.190625 
L 702.8 109.409375 
Q 702.8 105.409375 698.8 105.409375 
L 597.9625 105.409375 
Q 593.9625 105.409375 593.9625 109.409375 
L 593.9625 254.190625 
Q 593.9625 258.190625 597.9625 258.190625 
z
" style="fill: #ffffff; opacity: 0.8; stroke: #cccccc; stroke-linejoin: miter"/>
    </g>
    <g id="line2d_18">
     <path d="M 601.9625 121.60625 
L 621.9625 121.60625 
L 641.9625 121.60625 
" style="fill: none; stroke: #1f77b4; stroke-width: 1.5; stroke-linecap: square"/>
    </g>
    <g id="text_15">
     <!-- MI -->
     <g transform="translate(657.9625 128.60625) scale(0.2 -0.2)">
      <defs>
       <path id="DejaVuSans-4d" d="M 628 4666 
L 1569 4666 
L 2759 1491 
L 3956 4666 
L 4897 4666 
L 4897 0 
L 4281 0 
L 4281 4097 
L 3078 897 
L 2444 897 
L 1241 4097 
L 1241 0 
L 628 0 
L 628 4666 
z
" transform="scale(0.015625)"/>
       <path id="DejaVuSans-49" d="M 628 4666 
L 1259 4666 
L 1259 0 
L 628 0 
L 628 4666 
z
" transform="scale(0.015625)"/>
      </defs>
      <use xlink:href="#DejaVuSans-4d"/>
      <use xlink:href="#DejaVuSans-49" x="86.279297"/>
     </g>
    </g>
    <g id="line2d_19">
     <path d="M 601.9625 150.9625 
L 621.9625 150.9625 
L 641.9625 150.9625 
" style="fill: none; stroke: #ff7f0e; stroke-width: 1.5; stroke-linecap: square"/>
    </g>
    <g id="text_16">
     <!-- AMI -->
     <g transform="translate(657.9625 157.9625) scale(0.2 -0.2)">
      <defs>
       <path id="DejaVuSans-41" d="M 2188 4044 
L 1331 1722 
L 3047 1722 
L 2188 4044 
z
M 1831 4666 
L 2547 4666 
L 4325 0 
L 3669 0 
L 3244 1197 
L 1141 1197 
L 716 0 
L 50 0 
L 1831 4666 
z
" transform="scale(0.015625)"/>
      </defs>
      <use xlink:href="#DejaVuSans-41"/>
      <use xlink:href="#DejaVuSans-4d" x="68.408203"/>
      <use xlink:href="#DejaVuSans-49" x="154.6875"/>
     </g>
    </g>
    <g id="line2d_20">
     <path d="M 601.9625 180.31875 
L 621.9625 180.31875 
L 641.9625 180.31875 
" style="fill: none; stroke: #2ca02c; stroke-width: 1.5; stroke-linecap: square"/>
    </g>
    <g id="text_17">
     <!-- RI -->
     <g transform="translate(657.9625 187.31875) scale(0.2 -0.2)">
      <defs>
       <path id="DejaVuSans-52" d="M 2841 2188 
Q 3044 2119 3236 1894 
Q 3428 1669 3622 1275 
L 4263 0 
L 3584 0 
L 2988 1197 
Q 2756 1666 2539 1819 
Q 2322 1972 1947 1972 
L 1259 1972 
L 1259 0 
L 628 0 
L 628 4666 
L 2053 4666 
Q 2853 4666 3247 4331 
Q 3641 3997 3641 3322 
Q 3641 2881 3436 2590 
Q 3231 2300 2841 2188 
z
M 1259 4147 
L 1259 2491 
L 2053 2491 
Q 2509 2491 2742 2702 
Q 2975 2913 2975 3322 
Q 2975 3731 2742 3939 
Q 2509 4147 2053 4147 
L 1259 4147 
z
" transform="scale(0.015625)"/>
      </defs>
      <use xlink:href="#DejaVuSans-52"/>
      <use xlink:href="#DejaVuSans-49" x="69.482422"/>
     </g>
    </g>
    <g id="line2d_21">
     <path d="M 601.9625 209.675 
L 621.9625 209.675 
L 641.9625 209.675 
" style="fill: none; stroke: #d62728; stroke-width: 1.5; stroke-linecap: square"/>
    </g>
    <g id="text_18">
     <!-- ARI -->
     <g transform="translate(657.9625 216.675) scale(0.2 -0.2)">
      <use xlink:href="#DejaVuSans-41"/>
      <use xlink:href="#DejaVuSans-52" x="68.408203"/>
      <use xlink:href="#DejaVuSans-49" x="137.890625"/>
     </g>
    </g>
    <g id="line2d_22">
     <path d="M 601.9625 239.03125 
L 621.9625 239.03125 
L 641.9625 239.03125 
" style="fill: none; stroke: #9467bd; stroke-width: 1.5; stroke-linecap: square"/>
    </g>
    <g id="text_19">
     <!-- FMI -->
     <g transform="translate(657.9625 246.03125) scale(0.2 -0.2)">
      <defs>
       <path id="DejaVuSans-46" d="M 628 4666 
L 3309 4666 
L 3309 4134 
L 1259 4134 
L 1259 2759 
L 3109 2759 
L 3109 2228 
L 1259 2228 
L 1259 0 
L 628 0 
L 628 4666 
z
" transform="scale(0.015625)"/>
      </defs>
      <use xlink:href="#DejaVuSans-46"/>
      <use xlink:href="#DejaVuSans-4d" x="57.519531"/>
      <use xlink:href="#DejaVuSans-49" x="143.798828"/>
     </g>
    </g>
   </g>
  </g>
 </g>
 <defs>
  <clipPath id="pa13c04d3aa">
   <rect x="99" y="43.2" width="613.8" height="277.2"/>
  </clipPath>
 </defs>
</svg>
