<?xml version="1.0" encoding="utf-8" standalone="no"?>
<!DOCTYPE svg PUBLIC "-//W3C//DTD SVG 1.1//EN"
  "http://www.w3.org/Graphics/SVG/1.1/DTD/svg11.dtd">
<svg xmlns:xlink="http://www.w3.org/1999/xlink" width="460.8pt" height="345.6pt" viewBox="0 0 460.8 345.6" xmlns="http://www.w3.org/2000/svg" version="1.1">
 <metadata>
  <rdf:RDF xmlns:dc="http://purl.org/dc/elements/1.1/" xmlns:cc="http://creativecommons.org/ns#" xmlns:rdf="http://www.w3.org/1999/02/22-rdf-syntax-ns#">
   <cc:Work>
    <dc:type rdf:resource="http://purl.org/dc/dcmitype/StillImage"/>
    <dc:date>2024-03-11T20:08:57.678426</dc:date>
    <dc:format>image/svg+xml</dc:format>
    <dc:creator>
     <cc:Agent>
      <dc:title>Matplotlib v3.8.2, https://matplotlib.org/</dc:title>
     </cc:Agent>
    </dc:creator>
   </cc:Work>
  </rdf:RDF>
 </metadata>
 <defs>
  <style type="text/css">*{stroke-linejoin: round; stroke-linecap: butt}</style>
 </defs>
 <g id="figure_1">
  <g id="patch_1">
   <path d="M 0 345.6 
L 460.8 345.6 
L 460.8 0 
L 0 0 
z
" style="fill: #ffffff"/>
  </g>
  <g id="axes_1">
   <g id="patch_2">
    <path d="M 57.6 307.584 
L 414.72 307.584 
L 414.72 41.472 
L 57.6 41.472 
z
" style="fill: #ffffff"/>
   </g>
   <g id="patch_3">
    <path d="M 73.832727 307.584 
L 77.079273 307.584 
L 77.079273 66.816 
L 73.832727 66.816 
z
" clip-path="url(#p6c8c68f6a3)" style="fill: #1f77b4"/>
   </g>
   <g id="patch_4">
    <path d="M 77.079273 307.584 
L 80.325818 307.584 
L 80.325818 54.144 
L 77.079273 54.144 
z
" clip-path="url(#p6c8c68f6a3)" style="fill: #1f77b4"/>
   </g>
   <g id="patch_5">
    <path d="M 80.325818 307.584 
L 83.572364 307.584 
L 83.572364 117.504 
L 80.325818 117.504 
z
" clip-path="url(#p6c8c68f6a3)" style="fill: #1f77b4"/>
   </g>
   <g id="patch_6">
    <path d="M 83.572364 307.584 
L 86.818909 307.584 
L 86.818909 155.52 
L 83.572364 155.52 
z
" clip-path="url(#p6c8c68f6a3)" style="fill: #1f77b4"/>
   </g>
   <g id="patch_7">
    <path d="M 86.818909 307.584 
L 90.065455 307.584 
L 90.065455 218.88 
L 86.818909 218.88 
z
" clip-path="url(#p6c8c68f6a3)" style="fill: #1f77b4"/>
   </g>
   <g id="patch_8">
    <path d="M 90.065455 307.584 
L 93.312 307.584 
L 93.312 142.848 
L 90.065455 142.848 
z
" clip-path="url(#p6c8c68f6a3)" style="fill: #1f77b4"/>
   </g>
   <g id="patch_9">
    <path d="M 93.312 307.584 
L 96.558545 307.584 
L 96.558545 193.536 
L 93.312 193.536 
z
" clip-path="url(#p6c8c68f6a3)" style="fill: #1f77b4"/>
   </g>
   <g id="patch_10">
    <path d="M 96.558545 307.584 
L 99.805091 307.584 
L 99.805091 180.864 
L 96.558545 180.864 
z
" clip-path="url(#p6c8c68f6a3)" style="fill: #1f77b4"/>
   </g>
   <g id="patch_11">
    <path d="M 99.805091 307.584 
L 103.051636 307.584 
L 103.051636 206.208 
L 99.805091 206.208 
z
" clip-path="url(#p6c8c68f6a3)" style="fill: #1f77b4"/>
   </g>
   <g id="patch_12">
    <path d="M 103.051636 307.584 
L 106.298182 307.584 
L 106.298182 244.224 
L 103.051636 244.224 
z
" clip-path="url(#p6c8c68f6a3)" style="fill: #1f77b4"/>
   </g>
   <g id="patch_13">
    <path d="M 106.298182 307.584 
L 109.544727 307.584 
L 109.544727 218.88 
L 106.298182 218.88 
z
" clip-path="url(#p6c8c68f6a3)" style="fill: #1f77b4"/>
   </g>
   <g id="patch_14">
    <path d="M 109.544727 307.584 
L 112.791273 307.584 
L 112.791273 244.224 
L 109.544727 244.224 
z
" clip-path="url(#p6c8c68f6a3)" style="fill: #1f77b4"/>
   </g>
   <g id="patch_15">
    <path d="M 112.791273 307.584 
L 116.037818 307.584 
L 116.037818 269.568 
L 112.791273 269.568 
z
" clip-path="url(#p6c8c68f6a3)" style="fill: #1f77b4"/>
   </g>
   <g id="patch_16">
    <path d="M 116.037818 307.584 
L 119.284364 307.584 
L 119.284364 244.224 
L 116.037818 244.224 
z
" clip-path="url(#p6c8c68f6a3)" style="fill: #1f77b4"/>
   </g>
   <g id="patch_17">
    <path d="M 119.284364 307.584 
L 122.530909 307.584 
L 122.530909 282.24 
L 119.284364 282.24 
z
" clip-path="url(#p6c8c68f6a3)" style="fill: #1f77b4"/>
   </g>
   <g id="patch_18">
    <path d="M 122.530909 307.584 
L 125.777455 307.584 
L 125.777455 294.912 
L 122.530909 294.912 
z
" clip-path="url(#p6c8c68f6a3)" style="fill: #1f77b4"/>
   </g>
   <g id="patch_19">
    <path d="M 125.777455 307.584 
L 129.024 307.584 
L 129.024 294.912 
L 125.777455 294.912 
z
" clip-path="url(#p6c8c68f6a3)" style="fill: #1f77b4"/>
   </g>
   <g id="patch_20">
    <path d="M 129.024 307.584 
L 132.270545 307.584 
L 132.270545 256.896 
L 129.024 256.896 
z
" clip-path="url(#p6c8c68f6a3)" style="fill: #1f77b4"/>
   </g>
   <g id="patch_21">
    <path d="M 132.270545 307.584 
L 135.517091 307.584 
L 135.517091 269.568 
L 132.270545 269.568 
z
" clip-path="url(#p6c8c68f6a3)" style="fill: #1f77b4"/>
   </g>
   <g id="patch_22">
    <path d="M 135.517091 307.584 
L 138.763636 307.584 
L 138.763636 282.24 
L 135.517091 282.24 
z
" clip-path="url(#p6c8c68f6a3)" style="fill: #1f77b4"/>
   </g>
   <g id="patch_23">
    <path d="M 138.763636 307.584 
L 142.010182 307.584 
L 142.010182 282.24 
L 138.763636 282.24 
z
" clip-path="url(#p6c8c68f6a3)" style="fill: #1f77b4"/>
   </g>
   <g id="patch_24">
    <path d="M 142.010182 307.584 
L 145.256727 307.584 
L 145.256727 282.24 
L 142.010182 282.24 
z
" clip-path="url(#p6c8c68f6a3)" style="fill: #1f77b4"/>
   </g>
   <g id="patch_25">
    <path d="M 145.256727 307.584 
L 148.503273 307.584 
L 148.503273 269.568 
L 145.256727 269.568 
z
" clip-path="url(#p6c8c68f6a3)" style="fill: #1f77b4"/>
   </g>
   <g id="patch_26">
    <path d="M 148.503273 307.584 
L 151.749818 307.584 
L 151.749818 294.912 
L 148.503273 294.912 
z
" clip-path="url(#p6c8c68f6a3)" style="fill: #1f77b4"/>
   </g>
   <g id="patch_27">
    <path d="M 151.749818 307.584 
L 154.996364 307.584 
L 154.996364 269.568 
L 151.749818 269.568 
z
" clip-path="url(#p6c8c68f6a3)" style="fill: #1f77b4"/>
   </g>
   <g id="patch_28">
    <path d="M 154.996364 307.584 
L 158.242909 307.584 
L 158.242909 282.24 
L 154.996364 282.24 
z
" clip-path="url(#p6c8c68f6a3)" style="fill: #1f77b4"/>
   </g>
   <g id="patch_29">
    <path d="M 158.242909 307.584 
L 161.489455 307.584 
L 161.489455 282.24 
L 158.242909 282.24 
z
" clip-path="url(#p6c8c68f6a3)" style="fill: #1f77b4"/>
   </g>
   <g id="patch_30">
    <path d="M 161.489455 307.584 
L 164.736 307.584 
L 164.736 294.912 
L 161.489455 294.912 
z
" clip-path="url(#p6c8c68f6a3)" style="fill: #1f77b4"/>
   </g>
   <g id="patch_31">
    <path d="M 164.736 307.584 
L 167.982545 307.584 
L 167.982545 282.24 
L 164.736 282.24 
z
" clip-path="url(#p6c8c68f6a3)" style="fill: #1f77b4"/>
   </g>
   <g id="patch_32">
    <path d="M 167.982545 307.584 
L 171.229091 307.584 
L 171.229091 294.912 
L 167.982545 294.912 
z
" clip-path="url(#p6c8c68f6a3)" style="fill: #1f77b4"/>
   </g>
   <g id="patch_33">
    <path d="M 171.229091 307.584 
L 174.475636 307.584 
L 174.475636 256.896 
L 171.229091 256.896 
z
" clip-path="url(#p6c8c68f6a3)" style="fill: #1f77b4"/>
   </g>
   <g id="patch_34">
    <path d="M 174.475636 307.584 
L 177.722182 307.584 
L 177.722182 307.584 
L 174.475636 307.584 
z
" clip-path="url(#p6c8c68f6a3)" style="fill: #1f77b4"/>
   </g>
   <g id="patch_35">
    <path d="M 177.722182 307.584 
L 180.968727 307.584 
L 180.968727 282.24 
L 177.722182 282.24 
z
" clip-path="url(#p6c8c68f6a3)" style="fill: #1f77b4"/>
   </g>
   <g id="patch_36">
    <path d="M 180.968727 307.584 
L 184.215273 307.584 
L 184.215273 294.912 
L 180.968727 294.912 
z
" clip-path="url(#p6c8c68f6a3)" style="fill: #1f77b4"/>
   </g>
   <g id="patch_37">
    <path d="M 184.215273 307.584 
L 187.461818 307.584 
L 187.461818 294.912 
L 184.215273 294.912 
z
" clip-path="url(#p6c8c68f6a3)" style="fill: #1f77b4"/>
   </g>
   <g id="patch_38">
    <path d="M 187.461818 307.584 
L 190.708364 307.584 
L 190.708364 307.584 
L 187.461818 307.584 
z
" clip-path="url(#p6c8c68f6a3)" style="fill: #1f77b4"/>
   </g>
   <g id="patch_39">
    <path d="M 190.708364 307.584 
L 193.954909 307.584 
L 193.954909 282.24 
L 190.708364 282.24 
z
" clip-path="url(#p6c8c68f6a3)" style="fill: #1f77b4"/>
   </g>
   <g id="patch_40">
    <path d="M 193.954909 307.584 
L 197.201455 307.584 
L 197.201455 294.912 
L 193.954909 294.912 
z
" clip-path="url(#p6c8c68f6a3)" style="fill: #1f77b4"/>
   </g>
   <g id="patch_41">
    <path d="M 197.201455 307.584 
L 200.448 307.584 
L 200.448 307.584 
L 197.201455 307.584 
z
" clip-path="url(#p6c8c68f6a3)" style="fill: #1f77b4"/>
   </g>
   <g id="patch_42">
    <path d="M 200.448 307.584 
L 203.694545 307.584 
L 203.694545 307.584 
L 200.448 307.584 
z
" clip-path="url(#p6c8c68f6a3)" style="fill: #1f77b4"/>
   </g>
   <g id="patch_43">
    <path d="M 203.694545 307.584 
L 206.941091 307.584 
L 206.941091 307.584 
L 203.694545 307.584 
z
" clip-path="url(#p6c8c68f6a3)" style="fill: #1f77b4"/>
   </g>
   <g id="patch_44">
    <path d="M 206.941091 307.584 
L 210.187636 307.584 
L 210.187636 307.584 
L 206.941091 307.584 
z
" clip-path="url(#p6c8c68f6a3)" style="fill: #1f77b4"/>
   </g>
   <g id="patch_45">
    <path d="M 210.187636 307.584 
L 213.434182 307.584 
L 213.434182 294.912 
L 210.187636 294.912 
z
" clip-path="url(#p6c8c68f6a3)" style="fill: #1f77b4"/>
   </g>
   <g id="patch_46">
    <path d="M 213.434182 307.584 
L 216.680727 307.584 
L 216.680727 307.584 
L 213.434182 307.584 
z
" clip-path="url(#p6c8c68f6a3)" style="fill: #1f77b4"/>
   </g>
   <g id="patch_47">
    <path d="M 216.680727 307.584 
L 219.927273 307.584 
L 219.927273 307.584 
L 216.680727 307.584 
z
" clip-path="url(#p6c8c68f6a3)" style="fill: #1f77b4"/>
   </g>
   <g id="patch_48">
    <path d="M 219.927273 307.584 
L 223.173818 307.584 
L 223.173818 307.584 
L 219.927273 307.584 
z
" clip-path="url(#p6c8c68f6a3)" style="fill: #1f77b4"/>
   </g>
   <g id="patch_49">
    <path d="M 223.173818 307.584 
L 226.420364 307.584 
L 226.420364 294.912 
L 223.173818 294.912 
z
" clip-path="url(#p6c8c68f6a3)" style="fill: #1f77b4"/>
   </g>
   <g id="patch_50">
    <path d="M 226.420364 307.584 
L 229.666909 307.584 
L 229.666909 307.584 
L 226.420364 307.584 
z
" clip-path="url(#p6c8c68f6a3)" style="fill: #1f77b4"/>
   </g>
   <g id="patch_51">
    <path d="M 229.666909 307.584 
L 232.913455 307.584 
L 232.913455 307.584 
L 229.666909 307.584 
z
" clip-path="url(#p6c8c68f6a3)" style="fill: #1f77b4"/>
   </g>
   <g id="patch_52">
    <path d="M 232.913455 307.584 
L 236.16 307.584 
L 236.16 307.584 
L 232.913455 307.584 
z
" clip-path="url(#p6c8c68f6a3)" style="fill: #1f77b4"/>
   </g>
   <g id="patch_53">
    <path d="M 236.16 307.584 
L 239.406545 307.584 
L 239.406545 307.584 
L 236.16 307.584 
z
" clip-path="url(#p6c8c68f6a3)" style="fill: #1f77b4"/>
   </g>
   <g id="patch_54">
    <path d="M 239.406545 307.584 
L 242.653091 307.584 
L 242.653091 307.584 
L 239.406545 307.584 
z
" clip-path="url(#p6c8c68f6a3)" style="fill: #1f77b4"/>
   </g>
   <g id="patch_55">
    <path d="M 242.653091 307.584 
L 245.899636 307.584 
L 245.899636 307.584 
L 242.653091 307.584 
z
" clip-path="url(#p6c8c68f6a3)" style="fill: #1f77b4"/>
   </g>
   <g id="patch_56">
    <path d="M 245.899636 307.584 
L 249.146182 307.584 
L 249.146182 307.584 
L 245.899636 307.584 
z
" clip-path="url(#p6c8c68f6a3)" style="fill: #1f77b4"/>
   </g>
   <g id="patch_57">
    <path d="M 249.146182 307.584 
L 252.392727 307.584 
L 252.392727 307.584 
L 249.146182 307.584 
z
" clip-path="url(#p6c8c68f6a3)" style="fill: #1f77b4"/>
   </g>
   <g id="patch_58">
    <path d="M 252.392727 307.584 
L 255.639273 307.584 
L 255.639273 307.584 
L 252.392727 307.584 
z
" clip-path="url(#p6c8c68f6a3)" style="fill: #1f77b4"/>
   </g>
   <g id="patch_59">
    <path d="M 255.639273 307.584 
L 258.885818 307.584 
L 258.885818 307.584 
L 255.639273 307.584 
z
" clip-path="url(#p6c8c68f6a3)" style="fill: #1f77b4"/>
   </g>
   <g id="patch_60">
    <path d="M 258.885818 307.584 
L 262.132364 307.584 
L 262.132364 307.584 
L 258.885818 307.584 
z
" clip-path="url(#p6c8c68f6a3)" style="fill: #1f77b4"/>
   </g>
   <g id="patch_61">
    <path d="M 262.132364 307.584 
L 265.378909 307.584 
L 265.378909 307.584 
L 262.132364 307.584 
z
" clip-path="url(#p6c8c68f6a3)" style="fill: #1f77b4"/>
   </g>
   <g id="patch_62">
    <path d="M 265.378909 307.584 
L 268.625455 307.584 
L 268.625455 307.584 
L 265.378909 307.584 
z
" clip-path="url(#p6c8c68f6a3)" style="fill: #1f77b4"/>
   </g>
   <g id="patch_63">
    <path d="M 268.625455 307.584 
L 271.872 307.584 
L 271.872 294.912 
L 268.625455 294.912 
z
" clip-path="url(#p6c8c68f6a3)" style="fill: #1f77b4"/>
   </g>
   <g id="patch_64">
    <path d="M 271.872 307.584 
L 275.118545 307.584 
L 275.118545 307.584 
L 271.872 307.584 
z
" clip-path="url(#p6c8c68f6a3)" style="fill: #1f77b4"/>
   </g>
   <g id="patch_65">
    <path d="M 275.118545 307.584 
L 278.365091 307.584 
L 278.365091 307.584 
L 275.118545 307.584 
z
" clip-path="url(#p6c8c68f6a3)" style="fill: #1f77b4"/>
   </g>
   <g id="patch_66">
    <path d="M 278.365091 307.584 
L 281.611636 307.584 
L 281.611636 294.912 
L 278.365091 294.912 
z
" clip-path="url(#p6c8c68f6a3)" style="fill: #1f77b4"/>
   </g>
   <g id="patch_67">
    <path d="M 281.611636 307.584 
L 284.858182 307.584 
L 284.858182 307.584 
L 281.611636 307.584 
z
" clip-path="url(#p6c8c68f6a3)" style="fill: #1f77b4"/>
   </g>
   <g id="patch_68">
    <path d="M 284.858182 307.584 
L 288.104727 307.584 
L 288.104727 307.584 
L 284.858182 307.584 
z
" clip-path="url(#p6c8c68f6a3)" style="fill: #1f77b4"/>
   </g>
   <g id="patch_69">
    <path d="M 288.104727 307.584 
L 291.351273 307.584 
L 291.351273 307.584 
L 288.104727 307.584 
z
" clip-path="url(#p6c8c68f6a3)" style="fill: #1f77b4"/>
   </g>
   <g id="patch_70">
    <path d="M 291.351273 307.584 
L 294.597818 307.584 
L 294.597818 307.584 
L 291.351273 307.584 
z
" clip-path="url(#p6c8c68f6a3)" style="fill: #1f77b4"/>
   </g>
   <g id="patch_71">
    <path d="M 294.597818 307.584 
L 297.844364 307.584 
L 297.844364 307.584 
L 294.597818 307.584 
z
" clip-path="url(#p6c8c68f6a3)" style="fill: #1f77b4"/>
   </g>
   <g id="patch_72">
    <path d="M 297.844364 307.584 
L 301.090909 307.584 
L 301.090909 307.584 
L 297.844364 307.584 
z
" clip-path="url(#p6c8c68f6a3)" style="fill: #1f77b4"/>
   </g>
   <g id="patch_73">
    <path d="M 301.090909 307.584 
L 304.337455 307.584 
L 304.337455 307.584 
L 301.090909 307.584 
z
" clip-path="url(#p6c8c68f6a3)" style="fill: #1f77b4"/>
   </g>
   <g id="patch_74">
    <path d="M 304.337455 307.584 
L 307.584 307.584 
L 307.584 307.584 
L 304.337455 307.584 
z
" clip-path="url(#p6c8c68f6a3)" style="fill: #1f77b4"/>
   </g>
   <g id="patch_75">
    <path d="M 307.584 307.584 
L 310.830545 307.584 
L 310.830545 307.584 
L 307.584 307.584 
z
" clip-path="url(#p6c8c68f6a3)" style="fill: #1f77b4"/>
   </g>
   <g id="patch_76">
    <path d="M 310.830545 307.584 
L 314.077091 307.584 
L 314.077091 307.584 
L 310.830545 307.584 
z
" clip-path="url(#p6c8c68f6a3)" style="fill: #1f77b4"/>
   </g>
   <g id="patch_77">
    <path d="M 314.077091 307.584 
L 317.323636 307.584 
L 317.323636 307.584 
L 314.077091 307.584 
z
" clip-path="url(#p6c8c68f6a3)" style="fill: #1f77b4"/>
   </g>
   <g id="patch_78">
    <path d="M 317.323636 307.584 
L 320.570182 307.584 
L 320.570182 307.584 
L 317.323636 307.584 
z
" clip-path="url(#p6c8c68f6a3)" style="fill: #1f77b4"/>
   </g>
   <g id="patch_79">
    <path d="M 320.570182 307.584 
L 323.816727 307.584 
L 323.816727 307.584 
L 320.570182 307.584 
z
" clip-path="url(#p6c8c68f6a3)" style="fill: #1f77b4"/>
   </g>
   <g id="patch_80">
    <path d="M 323.816727 307.584 
L 327.063273 307.584 
L 327.063273 307.584 
L 323.816727 307.584 
z
" clip-path="url(#p6c8c68f6a3)" style="fill: #1f77b4"/>
   </g>
   <g id="patch_81">
    <path d="M 327.063273 307.584 
L 330.309818 307.584 
L 330.309818 307.584 
L 327.063273 307.584 
z
" clip-path="url(#p6c8c68f6a3)" style="fill: #1f77b4"/>
   </g>
   <g id="patch_82">
    <path d="M 330.309818 307.584 
L 333.556364 307.584 
L 333.556364 307.584 
L 330.309818 307.584 
z
" clip-path="url(#p6c8c68f6a3)" style="fill: #1f77b4"/>
   </g>
   <g id="patch_83">
    <path d="M 333.556364 307.584 
L 336.802909 307.584 
L 336.802909 307.584 
L 333.556364 307.584 
z
" clip-path="url(#p6c8c68f6a3)" style="fill: #1f77b4"/>
   </g>
   <g id="patch_84">
    <path d="M 336.802909 307.584 
L 340.049455 307.584 
L 340.049455 307.584 
L 336.802909 307.584 
z
" clip-path="url(#p6c8c68f6a3)" style="fill: #1f77b4"/>
   </g>
   <g id="patch_85">
    <path d="M 340.049455 307.584 
L 343.296 307.584 
L 343.296 307.584 
L 340.049455 307.584 
z
" clip-path="url(#p6c8c68f6a3)" style="fill: #1f77b4"/>
   </g>
   <g id="patch_86">
    <path d="M 343.296 307.584 
L 346.542545 307.584 
L 346.542545 307.584 
L 343.296 307.584 
z
" clip-path="url(#p6c8c68f6a3)" style="fill: #1f77b4"/>
   </g>
   <g id="patch_87">
    <path d="M 346.542545 307.584 
L 349.789091 307.584 
L 349.789091 307.584 
L 346.542545 307.584 
z
" clip-path="url(#p6c8c68f6a3)" style="fill: #1f77b4"/>
   </g>
   <g id="patch_88">
    <path d="M 349.789091 307.584 
L 353.035636 307.584 
L 353.035636 307.584 
L 349.789091 307.584 
z
" clip-path="url(#p6c8c68f6a3)" style="fill: #1f77b4"/>
   </g>
   <g id="patch_89">
    <path d="M 353.035636 307.584 
L 356.282182 307.584 
L 356.282182 307.584 
L 353.035636 307.584 
z
" clip-path="url(#p6c8c68f6a3)" style="fill: #1f77b4"/>
   </g>
   <g id="patch_90">
    <path d="M 356.282182 307.584 
L 359.528727 307.584 
L 359.528727 307.584 
L 356.282182 307.584 
z
" clip-path="url(#p6c8c68f6a3)" style="fill: #1f77b4"/>
   </g>
   <g id="patch_91">
    <path d="M 359.528727 307.584 
L 362.775273 307.584 
L 362.775273 307.584 
L 359.528727 307.584 
z
" clip-path="url(#p6c8c68f6a3)" style="fill: #1f77b4"/>
   </g>
   <g id="patch_92">
    <path d="M 362.775273 307.584 
L 366.021818 307.584 
L 366.021818 307.584 
L 362.775273 307.584 
z
" clip-path="url(#p6c8c68f6a3)" style="fill: #1f77b4"/>
   </g>
   <g id="patch_93">
    <path d="M 366.021818 307.584 
L 369.268364 307.584 
L 369.268364 307.584 
L 366.021818 307.584 
z
" clip-path="url(#p6c8c68f6a3)" style="fill: #1f77b4"/>
   </g>
   <g id="patch_94">
    <path d="M 369.268364 307.584 
L 372.514909 307.584 
L 372.514909 307.584 
L 369.268364 307.584 
z
" clip-path="url(#p6c8c68f6a3)" style="fill: #1f77b4"/>
   </g>
   <g id="patch_95">
    <path d="M 372.514909 307.584 
L 375.761455 307.584 
L 375.761455 307.584 
L 372.514909 307.584 
z
" clip-path="url(#p6c8c68f6a3)" style="fill: #1f77b4"/>
   </g>
   <g id="patch_96">
    <path d="M 375.761455 307.584 
L 379.008 307.584 
L 379.008 307.584 
L 375.761455 307.584 
z
" clip-path="url(#p6c8c68f6a3)" style="fill: #1f77b4"/>
   </g>
   <g id="patch_97">
    <path d="M 379.008 307.584 
L 382.254545 307.584 
L 382.254545 307.584 
L 379.008 307.584 
z
" clip-path="url(#p6c8c68f6a3)" style="fill: #1f77b4"/>
   </g>
   <g id="patch_98">
    <path d="M 382.254545 307.584 
L 385.501091 307.584 
L 385.501091 307.584 
L 382.254545 307.584 
z
" clip-path="url(#p6c8c68f6a3)" style="fill: #1f77b4"/>
   </g>
   <g id="patch_99">
    <path d="M 385.501091 307.584 
L 388.747636 307.584 
L 388.747636 307.584 
L 385.501091 307.584 
z
" clip-path="url(#p6c8c68f6a3)" style="fill: #1f77b4"/>
   </g>
   <g id="patch_100">
    <path d="M 388.747636 307.584 
L 391.994182 307.584 
L 391.994182 307.584 
L 388.747636 307.584 
z
" clip-path="url(#p6c8c68f6a3)" style="fill: #1f77b4"/>
   </g>
   <g id="patch_101">
    <path d="M 391.994182 307.584 
L 395.240727 307.584 
L 395.240727 307.584 
L 391.994182 307.584 
z
" clip-path="url(#p6c8c68f6a3)" style="fill: #1f77b4"/>
   </g>
   <g id="patch_102">
    <path d="M 395.240727 307.584 
L 398.487273 307.584 
L 398.487273 294.912 
L 395.240727 294.912 
z
" clip-path="url(#p6c8c68f6a3)" style="fill: #1f77b4"/>
   </g>
   <g id="matplotlib.axis_1">
    <g id="xtick_1">
     <g id="line2d_1">
      <path d="M 73.470343 307.584 
L 73.470343 41.472 
" clip-path="url(#p6c8c68f6a3)" style="fill: none; stroke: #b0b0b0; stroke-width: 0.8; stroke-linecap: square"/>
     </g>
     <g id="line2d_2">
      <defs>
       <path id="mf9c69d345d" d="M 0 0 
L 0 3.5 
" style="stroke: #000000; stroke-width: 0.8"/>
      </defs>
      <g>
       <use xlink:href="#mf9c69d345d" x="73.470343" y="307.584" style="stroke: #000000; stroke-width: 0.8"/>
      </g>
     </g>
     <g id="text_1">
      <!-- 0.0 -->
      <g transform="translate(65.518781 322.182437) scale(0.1 -0.1)">
       <defs>
        <path id="DejaVuSans-30" d="M 2034 4250 
Q 1547 4250 1301 3770 
Q 1056 3291 1056 2328 
Q 1056 1369 1301 889 
Q 1547 409 2034 409 
Q 2525 409 2770 889 
Q 3016 1369 3016 2328 
Q 3016 3291 2770 3770 
Q 2525 4250 2034 4250 
z
M 2034 4750 
Q 2819 4750 3233 4129 
Q 3647 3509 3647 2328 
Q 3647 1150 3233 529 
Q 2819 -91 2034 -91 
Q 1250 -91 836 529 
Q 422 1150 422 2328 
Q 422 3509 836 4129 
Q 1250 4750 2034 4750 
z
" transform="scale(0.015625)"/>
        <path id="DejaVuSans-2e" d="M 684 794 
L 1344 794 
L 1344 0 
L 684 0 
L 684 794 
z
" transform="scale(0.015625)"/>
       </defs>
       <use xlink:href="#DejaVuSans-30"/>
       <use xlink:href="#DejaVuSans-2e" x="63.623047"/>
       <use xlink:href="#DejaVuSans-30" x="95.410156"/>
      </g>
     </g>
    </g>
    <g id="xtick_2">
     <g id="line2d_3">
      <path d="M 120.166085 307.584 
L 120.166085 41.472 
" clip-path="url(#p6c8c68f6a3)" style="fill: none; stroke: #b0b0b0; stroke-width: 0.8; stroke-linecap: square"/>
     </g>
     <g id="line2d_4">
      <g>
       <use xlink:href="#mf9c69d345d" x="120.166085" y="307.584" style="stroke: #000000; stroke-width: 0.8"/>
      </g>
     </g>
     <g id="text_2">
      <!-- 0.5 -->
      <g transform="translate(112.214522 322.182437) scale(0.1 -0.1)">
       <defs>
        <path id="DejaVuSans-35" d="M 691 4666 
L 3169 4666 
L 3169 4134 
L 1269 4134 
L 1269 2991 
Q 1406 3038 1543 3061 
Q 1681 3084 1819 3084 
Q 2600 3084 3056 2656 
Q 3513 2228 3513 1497 
Q 3513 744 3044 326 
Q 2575 -91 1722 -91 
Q 1428 -91 1123 -41 
Q 819 9 494 109 
L 494 744 
Q 775 591 1075 516 
Q 1375 441 1709 441 
Q 2250 441 2565 725 
Q 2881 1009 2881 1497 
Q 2881 1984 2565 2268 
Q 2250 2553 1709 2553 
Q 1456 2553 1204 2497 
Q 953 2441 691 2322 
L 691 4666 
z
" transform="scale(0.015625)"/>
       </defs>
       <use xlink:href="#DejaVuSans-30"/>
       <use xlink:href="#DejaVuSans-2e" x="63.623047"/>
       <use xlink:href="#DejaVuSans-35" x="95.410156"/>
      </g>
     </g>
    </g>
    <g id="xtick_3">
     <g id="line2d_5">
      <path d="M 166.861826 307.584 
L 166.861826 41.472 
" clip-path="url(#p6c8c68f6a3)" style="fill: none; stroke: #b0b0b0; stroke-width: 0.8; stroke-linecap: square"/>
     </g>
     <g id="line2d_6">
      <g>
       <use xlink:href="#mf9c69d345d" x="166.861826" y="307.584" style="stroke: #000000; stroke-width: 0.8"/>
      </g>
     </g>
     <g id="text_3">
      <!-- 1.0 -->
      <g transform="translate(158.910263 322.182437) scale(0.1 -0.1)">
       <defs>
        <path id="DejaVuSans-31" d="M 794 531 
L 1825 531 
L 1825 4091 
L 703 3866 
L 703 4441 
L 1819 4666 
L 2450 4666 
L 2450 531 
L 3481 531 
L 3481 0 
L 794 0 
L 794 531 
z
" transform="scale(0.015625)"/>
       </defs>
       <use xlink:href="#DejaVuSans-31"/>
       <use xlink:href="#DejaVuSans-2e" x="63.623047"/>
       <use xlink:href="#DejaVuSans-30" x="95.410156"/>
      </g>
     </g>
    </g>
    <g id="xtick_4">
     <g id="line2d_7">
      <path d="M 213.557567 307.584 
L 213.557567 41.472 
" clip-path="url(#p6c8c68f6a3)" style="fill: none; stroke: #b0b0b0; stroke-width: 0.8; stroke-linecap: square"/>
     </g>
     <g id="line2d_8">
      <g>
       <use xlink:href="#mf9c69d345d" x="213.557567" y="307.584" style="stroke: #000000; stroke-width: 0.8"/>
      </g>
     </g>
     <g id="text_4">
      <!-- 1.5 -->
      <g transform="translate(205.606005 322.182437) scale(0.1 -0.1)">
       <use xlink:href="#DejaVuSans-31"/>
       <use xlink:href="#DejaVuSans-2e" x="63.623047"/>
       <use xlink:href="#DejaVuSans-35" x="95.410156"/>
      </g>
     </g>
    </g>
    <g id="xtick_5">
     <g id="line2d_9">
      <path d="M 260.253308 307.584 
L 260.253308 41.472 
" clip-path="url(#p6c8c68f6a3)" style="fill: none; stroke: #b0b0b0; stroke-width: 0.8; stroke-linecap: square"/>
     </g>
     <g id="line2d_10">
      <g>
       <use xlink:href="#mf9c69d345d" x="260.253308" y="307.584" style="stroke: #000000; stroke-width: 0.8"/>
      </g>
     </g>
     <g id="text_5">
      <!-- 2.0 -->
      <g transform="translate(252.301746 322.182437) scale(0.1 -0.1)">
       <defs>
        <path id="DejaVuSans-32" d="M 1228 531 
L 3431 531 
L 3431 0 
L 469 0 
L 469 531 
Q 828 903 1448 1529 
Q 2069 2156 2228 2338 
Q 2531 2678 2651 2914 
Q 2772 3150 2772 3378 
Q 2772 3750 2511 3984 
Q 2250 4219 1831 4219 
Q 1534 4219 1204 4116 
Q 875 4013 500 3803 
L 500 4441 
Q 881 4594 1212 4672 
Q 1544 4750 1819 4750 
Q 2544 4750 2975 4387 
Q 3406 4025 3406 3419 
Q 3406 3131 3298 2873 
Q 3191 2616 2906 2266 
Q 2828 2175 2409 1742 
Q 1991 1309 1228 531 
z
" transform="scale(0.015625)"/>
       </defs>
       <use xlink:href="#DejaVuSans-32"/>
       <use xlink:href="#DejaVuSans-2e" x="63.623047"/>
       <use xlink:href="#DejaVuSans-30" x="95.410156"/>
      </g>
     </g>
    </g>
    <g id="xtick_6">
     <g id="line2d_11">
      <path d="M 306.94905 307.584 
L 306.94905 41.472 
" clip-path="url(#p6c8c68f6a3)" style="fill: none; stroke: #b0b0b0; stroke-width: 0.8; stroke-linecap: square"/>
     </g>
     <g id="line2d_12">
      <g>
       <use xlink:href="#mf9c69d345d" x="306.94905" y="307.584" style="stroke: #000000; stroke-width: 0.8"/>
      </g>
     </g>
     <g id="text_6">
      <!-- 2.5 -->
      <g transform="translate(298.997487 322.182437) scale(0.1 -0.1)">
       <use xlink:href="#DejaVuSans-32"/>
       <use xlink:href="#DejaVuSans-2e" x="63.623047"/>
       <use xlink:href="#DejaVuSans-35" x="95.410156"/>
      </g>
     </g>
    </g>
    <g id="xtick_7">
     <g id="line2d_13">
      <path d="M 353.644791 307.584 
L 353.644791 41.472 
" clip-path="url(#p6c8c68f6a3)" style="fill: none; stroke: #b0b0b0; stroke-width: 0.8; stroke-linecap: square"/>
     </g>
     <g id="line2d_14">
      <g>
       <use xlink:href="#mf9c69d345d" x="353.644791" y="307.584" style="stroke: #000000; stroke-width: 0.8"/>
      </g>
     </g>
     <g id="text_7">
      <!-- 3.0 -->
      <g transform="translate(345.693229 322.182437) scale(0.1 -0.1)">
       <defs>
        <path id="DejaVuSans-33" d="M 2597 2516 
Q 3050 2419 3304 2112 
Q 3559 1806 3559 1356 
Q 3559 666 3084 287 
Q 2609 -91 1734 -91 
Q 1441 -91 1130 -33 
Q 819 25 488 141 
L 488 750 
Q 750 597 1062 519 
Q 1375 441 1716 441 
Q 2309 441 2620 675 
Q 2931 909 2931 1356 
Q 2931 1769 2642 2001 
Q 2353 2234 1838 2234 
L 1294 2234 
L 1294 2753 
L 1863 2753 
Q 2328 2753 2575 2939 
Q 2822 3125 2822 3475 
Q 2822 3834 2567 4026 
Q 2313 4219 1838 4219 
Q 1578 4219 1281 4162 
Q 984 4106 628 3988 
L 628 4550 
Q 988 4650 1302 4700 
Q 1616 4750 1894 4750 
Q 2613 4750 3031 4423 
Q 3450 4097 3450 3541 
Q 3450 3153 3228 2886 
Q 3006 2619 2597 2516 
z
" transform="scale(0.015625)"/>
       </defs>
       <use xlink:href="#DejaVuSans-33"/>
       <use xlink:href="#DejaVuSans-2e" x="63.623047"/>
       <use xlink:href="#DejaVuSans-30" x="95.410156"/>
      </g>
     </g>
    </g>
    <g id="xtick_8">
     <g id="line2d_15">
      <path d="M 400.340532 307.584 
L 400.340532 41.472 
" clip-path="url(#p6c8c68f6a3)" style="fill: none; stroke: #b0b0b0; stroke-width: 0.8; stroke-linecap: square"/>
     </g>
     <g id="line2d_16">
      <g>
       <use xlink:href="#mf9c69d345d" x="400.340532" y="307.584" style="stroke: #000000; stroke-width: 0.8"/>
      </g>
     </g>
     <g id="text_8">
      <!-- 3.5 -->
      <g transform="translate(392.38897 322.182437) scale(0.1 -0.1)">
       <use xlink:href="#DejaVuSans-33"/>
       <use xlink:href="#DejaVuSans-2e" x="63.623047"/>
       <use xlink:href="#DejaVuSans-35" x="95.410156"/>
      </g>
     </g>
    </g>
    <g id="text_9">
     <!-- 1e−5 -->
     <g transform="translate(387.462188 334.860562) scale(0.1 -0.1)">
      <defs>
       <path id="DejaVuSans-65" d="M 3597 1894 
L 3597 1613 
L 953 1613 
Q 991 1019 1311 708 
Q 1631 397 2203 397 
Q 2534 397 2845 478 
Q 3156 559 3463 722 
L 3463 178 
Q 3153 47 2828 -22 
Q 2503 -91 2169 -91 
Q 1331 -91 842 396 
Q 353 884 353 1716 
Q 353 2575 817 3079 
Q 1281 3584 2069 3584 
Q 2775 3584 3186 3129 
Q 3597 2675 3597 1894 
z
M 3022 2063 
Q 3016 2534 2758 2815 
Q 2500 3097 2075 3097 
Q 1594 3097 1305 2825 
Q 1016 2553 972 2059 
L 3022 2063 
z
" transform="scale(0.015625)"/>
       <path id="DejaVuSans-2212" d="M 678 2272 
L 4684 2272 
L 4684 1741 
L 678 1741 
L 678 2272 
z
" transform="scale(0.015625)"/>
      </defs>
      <use xlink:href="#DejaVuSans-31"/>
      <use xlink:href="#DejaVuSans-65" x="63.623047"/>
      <use xlink:href="#DejaVuSans-2212" x="125.146484"/>
      <use xlink:href="#DejaVuSans-35" x="208.935547"/>
     </g>
    </g>
   </g>
   <g id="matplotlib.axis_2">
    <g id="ytick_1">
     <g id="line2d_17">
      <path d="M 57.6 307.584 
L 414.72 307.584 
" clip-path="url(#p6c8c68f6a3)" style="fill: none; stroke: #b0b0b0; stroke-width: 0.8; stroke-linecap: square"/>
     </g>
     <g id="line2d_18">
      <defs>
       <path id="m0b85c58fe4" d="M 0 0 
L -3.5 0 
" style="stroke: #000000; stroke-width: 0.8"/>
      </defs>
      <g>
       <use xlink:href="#m0b85c58fe4" x="57.6" y="307.584" style="stroke: #000000; stroke-width: 0.8"/>
      </g>
     </g>
     <g id="text_10">
      <!-- 0.0 -->
      <g transform="translate(34.696875 311.383219) scale(0.1 -0.1)">
       <use xlink:href="#DejaVuSans-30"/>
       <use xlink:href="#DejaVuSans-2e" x="63.623047"/>
       <use xlink:href="#DejaVuSans-30" x="95.410156"/>
      </g>
     </g>
    </g>
    <g id="ytick_2">
     <g id="line2d_19">
      <path d="M 57.6 275.904 
L 414.72 275.904 
" clip-path="url(#p6c8c68f6a3)" style="fill: none; stroke: #b0b0b0; stroke-width: 0.8; stroke-linecap: square"/>
     </g>
     <g id="line2d_20">
      <g>
       <use xlink:href="#m0b85c58fe4" x="57.6" y="275.904" style="stroke: #000000; stroke-width: 0.8"/>
      </g>
     </g>
     <g id="text_11">
      <!-- 2.5 -->
      <g transform="translate(34.696875 279.703219) scale(0.1 -0.1)">
       <use xlink:href="#DejaVuSans-32"/>
       <use xlink:href="#DejaVuSans-2e" x="63.623047"/>
       <use xlink:href="#DejaVuSans-35" x="95.410156"/>
      </g>
     </g>
    </g>
    <g id="ytick_3">
     <g id="line2d_21">
      <path d="M 57.6 244.224 
L 414.72 244.224 
" clip-path="url(#p6c8c68f6a3)" style="fill: none; stroke: #b0b0b0; stroke-width: 0.8; stroke-linecap: square"/>
     </g>
     <g id="line2d_22">
      <g>
       <use xlink:href="#m0b85c58fe4" x="57.6" y="244.224" style="stroke: #000000; stroke-width: 0.8"/>
      </g>
     </g>
     <g id="text_12">
      <!-- 5.0 -->
      <g transform="translate(34.696875 248.023219) scale(0.1 -0.1)">
       <use xlink:href="#DejaVuSans-35"/>
       <use xlink:href="#DejaVuSans-2e" x="63.623047"/>
       <use xlink:href="#DejaVuSans-30" x="95.410156"/>
      </g>
     </g>
    </g>
    <g id="ytick_4">
     <g id="line2d_23">
      <path d="M 57.6 212.544 
L 414.72 212.544 
" clip-path="url(#p6c8c68f6a3)" style="fill: none; stroke: #b0b0b0; stroke-width: 0.8; stroke-linecap: square"/>
     </g>
     <g id="line2d_24">
      <g>
       <use xlink:href="#m0b85c58fe4" x="57.6" y="212.544" style="stroke: #000000; stroke-width: 0.8"/>
      </g>
     </g>
     <g id="text_13">
      <!-- 7.5 -->
      <g transform="translate(34.696875 216.343219) scale(0.1 -0.1)">
       <defs>
        <path id="DejaVuSans-37" d="M 525 4666 
L 3525 4666 
L 3525 4397 
L 1831 0 
L 1172 0 
L 2766 4134 
L 525 4134 
L 525 4666 
z
" transform="scale(0.015625)"/>
       </defs>
       <use xlink:href="#DejaVuSans-37"/>
       <use xlink:href="#DejaVuSans-2e" x="63.623047"/>
       <use xlink:href="#DejaVuSans-35" x="95.410156"/>
      </g>
     </g>
    </g>
    <g id="ytick_5">
     <g id="line2d_25">
      <path d="M 57.6 180.864 
L 414.72 180.864 
" clip-path="url(#p6c8c68f6a3)" style="fill: none; stroke: #b0b0b0; stroke-width: 0.8; stroke-linecap: square"/>
     </g>
     <g id="line2d_26">
      <g>
       <use xlink:href="#m0b85c58fe4" x="57.6" y="180.864" style="stroke: #000000; stroke-width: 0.8"/>
      </g>
     </g>
     <g id="text_14">
      <!-- 10.0 -->
      <g transform="translate(28.334375 184.663219) scale(0.1 -0.1)">
       <use xlink:href="#DejaVuSans-31"/>
       <use xlink:href="#DejaVuSans-30" x="63.623047"/>
       <use xlink:href="#DejaVuSans-2e" x="127.246094"/>
       <use xlink:href="#DejaVuSans-30" x="159.033203"/>
      </g>
     </g>
    </g>
    <g id="ytick_6">
     <g id="line2d_27">
      <path d="M 57.6 149.184 
L 414.72 149.184 
" clip-path="url(#p6c8c68f6a3)" style="fill: none; stroke: #b0b0b0; stroke-width: 0.8; stroke-linecap: square"/>
     </g>
     <g id="line2d_28">
      <g>
       <use xlink:href="#m0b85c58fe4" x="57.6" y="149.184" style="stroke: #000000; stroke-width: 0.8"/>
      </g>
     </g>
     <g id="text_15">
      <!-- 12.5 -->
      <g transform="translate(28.334375 152.983219) scale(0.1 -0.1)">
       <use xlink:href="#DejaVuSans-31"/>
       <use xlink:href="#DejaVuSans-32" x="63.623047"/>
       <use xlink:href="#DejaVuSans-2e" x="127.246094"/>
       <use xlink:href="#DejaVuSans-35" x="159.033203"/>
      </g>
     </g>
    </g>
    <g id="ytick_7">
     <g id="line2d_29">
      <path d="M 57.6 117.504 
L 414.72 117.504 
" clip-path="url(#p6c8c68f6a3)" style="fill: none; stroke: #b0b0b0; stroke-width: 0.8; stroke-linecap: square"/>
     </g>
     <g id="line2d_30">
      <g>
       <use xlink:href="#m0b85c58fe4" x="57.6" y="117.504" style="stroke: #000000; stroke-width: 0.8"/>
      </g>
     </g>
     <g id="text_16">
      <!-- 15.0 -->
      <g transform="translate(28.334375 121.303219) scale(0.1 -0.1)">
       <use xlink:href="#DejaVuSans-31"/>
       <use xlink:href="#DejaVuSans-35" x="63.623047"/>
       <use xlink:href="#DejaVuSans-2e" x="127.246094"/>
       <use xlink:href="#DejaVuSans-30" x="159.033203"/>
      </g>
     </g>
    </g>
    <g id="ytick_8">
     <g id="line2d_31">
      <path d="M 57.6 85.824 
L 414.72 85.824 
" clip-path="url(#p6c8c68f6a3)" style="fill: none; stroke: #b0b0b0; stroke-width: 0.8; stroke-linecap: square"/>
     </g>
     <g id="line2d_32">
      <g>
       <use xlink:href="#m0b85c58fe4" x="57.6" y="85.824" style="stroke: #000000; stroke-width: 0.8"/>
      </g>
     </g>
     <g id="text_17">
      <!-- 17.5 -->
      <g transform="translate(28.334375 89.623219) scale(0.1 -0.1)">
       <use xlink:href="#DejaVuSans-31"/>
       <use xlink:href="#DejaVuSans-37" x="63.623047"/>
       <use xlink:href="#DejaVuSans-2e" x="127.246094"/>
       <use xlink:href="#DejaVuSans-35" x="159.033203"/>
      </g>
     </g>
    </g>
    <g id="ytick_9">
     <g id="line2d_33">
      <path d="M 57.6 54.144 
L 414.72 54.144 
" clip-path="url(#p6c8c68f6a3)" style="fill: none; stroke: #b0b0b0; stroke-width: 0.8; stroke-linecap: square"/>
     </g>
     <g id="line2d_34">
      <g>
       <use xlink:href="#m0b85c58fe4" x="57.6" y="54.144" style="stroke: #000000; stroke-width: 0.8"/>
      </g>
     </g>
     <g id="text_18">
      <!-- 20.0 -->
      <g transform="translate(28.334375 57.943219) scale(0.1 -0.1)">
       <use xlink:href="#DejaVuSans-32"/>
       <use xlink:href="#DejaVuSans-30" x="63.623047"/>
       <use xlink:href="#DejaVuSans-2e" x="127.246094"/>
       <use xlink:href="#DejaVuSans-30" x="159.033203"/>
      </g>
     </g>
    </g>
   </g>
   <g id="patch_103">
    <path d="M 57.6 307.584 
L 57.6 41.472 
" style="fill: none; stroke: #000000; stroke-width: 0.8; stroke-linejoin: miter; stroke-linecap: square"/>
   </g>
   <g id="patch_104">
    <path d="M 414.72 307.584 
L 414.72 41.472 
" style="fill: none; stroke: #000000; stroke-width: 0.8; stroke-linejoin: miter; stroke-linecap: square"/>
   </g>
   <g id="patch_105">
    <path d="M 57.6 307.584 
L 414.72 307.584 
" style="fill: none; stroke: #000000; stroke-width: 0.8; stroke-linejoin: miter; stroke-linecap: square"/>
   </g>
   <g id="patch_106">
    <path d="M 57.6 41.472 
L 414.72 41.472 
" style="fill: none; stroke: #000000; stroke-width: 0.8; stroke-linejoin: miter; stroke-linecap: square"/>
   </g>
   <g id="text_19">
    <!-- 0 -->
    <g transform="translate(232.3425 35.472) scale(0.12 -0.12)">
     <use xlink:href="#DejaVuSans-30"/>
    </g>
   </g>
  </g>
 </g>
 <defs>
  <clipPath id="p6c8c68f6a3">
   <rect x="57.6" y="41.472" width="357.12" height="266.112"/>
  </clipPath>
 </defs>
</svg>
